<svg xmlns="http://www.w3.org/2000/svg" width="52.041" height="58.769" viewBox="0 0 52.041 58.769"><defs><style>.a{fill:#eaeae8;}.b{fill:#c3b895;}.c{fill:#ebebeb;}.d{fill:#834b10;}.e{fill:#e4e4e2;}.f{fill:#cdcdcd;}.g{fill:#f7ba61;}.h{fill:#dea757;}.i{fill:#b6534f;}.j{fill:#e06661;}.k{fill:#fbedbf;}.l{fill:#ea6b65;}.m{fill:#ea9d2d;}.n{fill:#dbdbdb;}.o{fill:#e6ad5a;}.p{fill:#cbcbcb;}.q{fill:#fbb540;}</style></defs><path class="a" d="M58.314,22.707H8.008V20.748L14.947,8.016H51.375l6.939,12.733Zm0,0" transform="translate(-7.14 -7.034)"/><path class="b" d="M136.008,112.016h36.429v11.753H136.008Zm0,0" transform="translate(-121.263 -98.301)"/><path class="c" d="M136.008,208.016h36.429v32.322H136.008Zm0,0" transform="translate(-121.263 -182.548)"/><path class="d" d="M8.008,120.016H21.885v44.075H8.008Zm0,0" transform="translate(-7.14 -105.322)"/><path class="e" d="M8.008,280.016H22.753V304.5H8.008Zm0,0" transform="translate(-7.14 -245.733)"/><path class="c" d="M8.008,280.016h6.939V304.5H8.008Zm0,0" transform="translate(-7.14 -245.733)"/><path class="f" d="M32.008,336h1.735v1.959H32.008Zm0,0" transform="translate(-28.538 -294.863)"/><path class="f" d="M96.008,336h1.735v1.959H96.008Zm0,0" transform="translate(-85.6 -294.863)"/><path class="g" d="M8.008,400.016H20.151v9.794H8.008Zm0,0" transform="translate(-7.14 -351.041)"/><path class="h" d="M72.008,400.016h6.939v9.794H72.008Zm0,0" transform="translate(-64.202 -351.041)"/><path class="i" d="M14.947,216c3.832,0,6.939,3.508,6.939,7.836H8.008C8.008,219.508,11.114,216,14.947,216Zm0,0" transform="translate(-7.14 -189.555)"/><path class="j" d="M49.743,216l-.183.413a18.369,18.369,0,0,0-1.552,7.422h5.2a18.362,18.362,0,0,0-1.552-7.422L51.477,216Zm0,0" transform="translate(-42.804 -189.555)"/><path class="k" d="M136.008,208.016h36.429v26.445H136.008Zm0,0" transform="translate(-121.263 -182.548)"/><path class="g" d="M356.921,312.032a1.994,1.994,0,0,0-1.443,2.037v4.791h-3.469V321.8h5.2a1.857,1.857,0,0,0,1.735-1.959v-5.877a2.068,2.068,0,0,0-.616-1.5A1.6,1.6,0,0,0,356.921,312.032Zm0,0" transform="translate(-313.845 -273.805)"/><path class="g" d="M378.61,253.877a2.96,2.96,0,1,1,2.6-2.938A2.786,2.786,0,0,1,378.61,253.877Zm0,0" transform="translate(-335.242 -217.637)"/><path class="l" d="M388.345,343.836a2.786,2.786,0,0,0,2.6-2.938v-3.918a.874.874,0,1,0-1.735,0V340.9a.929.929,0,0,1-.867.979h-3.469a.929.929,0,0,0-.867.979v3.918h1.735v-2.938Zm0,0" transform="translate(-342.375 -294.863)"/><path class="g" d="M194.034,312.032a1.994,1.994,0,0,1,1.443,2.037v4.791h4.337V321.8h-6.071a1.857,1.857,0,0,1-1.735-1.959v-5.877a2.07,2.07,0,0,1,.616-1.5A1.6,1.6,0,0,1,194.034,312.032Zm0,0" transform="translate(-171.191 -273.805)"/><path class="g" d="M186.61,253.877a2.96,2.96,0,1,1,2.6-2.938A2.786,2.786,0,0,1,186.61,253.877Zm0,0" transform="translate(-164.059 -217.637)"/><path class="l" d="M166.079,341.877H162.61a.929.929,0,0,1-.867-.979v-3.918a.874.874,0,1,0-1.735,0V340.9a2.786,2.786,0,0,0,2.6,2.938h2.6v2.938h1.735v-3.918A.929.929,0,0,0,166.079,341.877Zm0,0" transform="translate(-142.661 -294.863)"/><g transform="translate(28.622 28.405)"><path class="m" d="M296.008,264.016h1.735v7.836h-1.735Zm0,0" transform="translate(-292.538 -260.097)"/><path class="m" d="M269.212,275.918h-1.735A3.714,3.714,0,0,1,264.008,272h1.735a1.857,1.857,0,0,0,1.735,1.959h1.735A1.857,1.857,0,0,0,270.947,272h1.735A3.714,3.714,0,0,1,269.212,275.918Zm0,0" transform="translate(-264.008 -267.104)"/><path class="m" d="M296.834,233.967a.872.872,0,0,1-.806-.6,1.073,1.073,0,0,1,.19-1.071.8.8,0,0,1,.945-.207,1,1,0,0,1,.286.207,1.087,1.087,0,0,1,0,1.391,1.028,1.028,0,0,1-.286.206A.8.8,0,0,1,296.834,233.967Zm0,0" transform="translate(-292.498 -232.01)"/><path class="m" d="M328.875,241.967a.8.8,0,0,1-.329-.078,1.033,1.033,0,0,1-.286-.206,1.087,1.087,0,0,1,0-1.391,1,1,0,0,1,.286-.207.8.8,0,0,1,.945.207,1.073,1.073,0,0,1,.19,1.071A.872.872,0,0,1,328.875,241.967Zm0,0" transform="translate(-321.069 -239.03)"/><path class="m" d="M265.017,242.1a.9.9,0,0,1-.835-.788,1,1,0,0,1,.519-1.079.807.807,0,0,1,1.04.361,1.065,1.065,0,0,1-.108,1.222A.865.865,0,0,1,265.017,242.1Zm0,0" transform="translate(-264.15 -239.163)"/></g><path class="a" d="M248.008,352.016h12.143v8.815H248.008Zm0,0" transform="translate(-221.12 -308.918)"/><path class="n" d="M272.008,376.016h1.735v5.877h-1.735Zm0,0" transform="translate(-242.518 -329.98)"/><path class="n" d="M320.008,376.016h1.735v5.877h-1.735Zm0,0" transform="translate(-285.314 -329.98)"/><path class="o" d="M240.008,368.016h.867v2.938h-.867Zm0,0" transform="translate(-213.987 -322.959)"/><path class="o" d="M360.008,368.016h.867v2.938h-.867Zm0,0" transform="translate(-320.977 -322.959)"/><path class="p" d="M296.875,315.918a.929.929,0,0,1-.867-.979v-1.959a.874.874,0,1,1,1.735,0v1.959A.929.929,0,0,1,296.875,315.918Zm0,0" transform="translate(-263.916 -273.801)"/><path class="n" d="M278.947,323.918h-6.939a3.5,3.5,0,1,1,6.939,0Zm0,0" transform="translate(-242.518 -280.822)"/><path class="p" d="M272.13,344a4.372,4.372,0,0,0-.122.979h6.939a4.368,4.368,0,0,0-.122-.979Zm0,0" transform="translate(-242.518 -301.884)"/><path class="d" d="M136.008,424.016h36.429v6.856H136.008Zm0,0" transform="translate(-121.263 -372.103)"/><path class="p" d="M8.008,112H18.416v5.877c0,3.245-2.33,5.877-5.2,5.877s-5.2-2.631-5.2-5.877Zm0,0" transform="translate(-7.14 -98.288)"/><path class="j" d="M104.008,112h10.408v5.877c0,3.245-2.33,5.877-5.2,5.877s-5.2-2.631-5.2-5.877Zm0,0" transform="translate(-92.732 -98.288)"/><path class="j" d="M280.008,112h10.408v5.877c0,3.245-2.33,5.877-5.2,5.877s-5.2-2.631-5.2-5.877Zm0,0" transform="translate(-249.651 -98.288)"/><path class="p" d="M376.008,112h10.408v5.877c0,3.245-2.33,5.877-5.2,5.877s-5.2-2.631-5.2-5.877Zm0,0" transform="translate(-335.242 -98.288)"/><path class="l" d="M107.477,8.016l-3.469,12.733h10.408V8.016Zm0,0" transform="translate(-92.732 -7.034)"/><path class="l" d="M287.814,8.016l2.6,12.733H280.008V8.016Zm0,0" transform="translate(-249.651 -7.034)"/><path class="q" d="M158.567,20.741c0,7.032-5.048,12.733-11.276,12.733s-11.276-5.7-11.276-12.733,5.048-12.733,11.276-12.733S158.567,13.709,158.567,20.741Zm0,0" transform="translate(-121.27 -7.027)"/><path class="c" d="M268.345,54.692h-4.337V40a7.844,7.844,0,0,1,4.337,7.233Zm0,0" transform="translate(-235.385 -35.103)"/><path class="n" d="M267.477,164.839V160h-3.469v6.507A10.619,10.619,0,0,0,267.477,164.839Zm0,0" transform="translate(-235.385 -140.411)"/><path class="e" d="M182.947,96h-6.939v2.938c0,.867,1.206,1.638,1.735,2.176v8.139a10.341,10.341,0,0,0,3.469,1.274v-9.412c.528-.538,1.735-1.309,1.735-2.176Zm0,0" transform="translate(-156.926 -84.247)"/><path class="e" d="M225.742,56.815h-1.735V48.979a.874.874,0,1,1,1.735,0Zm0,0" transform="translate(-199.722 -42.123)"/><path class="e" d="M177.743,56.815h-1.735V48.979a.874.874,0,1,1,1.735,0Zm0,0" transform="translate(-156.926 -42.123)"/><path class="p" d="M264.016,160h3.469v.979h-3.469Zm0,0" transform="translate(-235.392 -140.411)"/><path d="M378.61,248a2.96,2.96,0,1,0,2.6,2.938A2.786,2.786,0,0,0,378.61,248Zm0,3.918a.987.987,0,1,1,.867-.979A.929.929,0,0,1,378.61,251.918Zm0,0" transform="translate(-335.242 -217.637)"/><path d="M186.61,248a2.96,2.96,0,1,0,2.6,2.938A2.786,2.786,0,0,0,186.61,248Zm0,3.918a.987.987,0,1,1,.867-.979A.929.929,0,0,1,186.61,251.918Zm0,0" transform="translate(-164.059 -217.637)"/><path d="M297.2,232.14a.826.826,0,0,0-.945.206,1.1,1.1,0,0,0-.252.7,1.083,1.083,0,0,0,.252.7.824.824,0,0,0,.616.284.773.773,0,0,0,.329-.068,1.036,1.036,0,0,0,.286-.216,1.087,1.087,0,0,0,0-1.391A.993.993,0,0,0,297.2,232.14Zm0,0" transform="translate(-263.916 -203.657)"/><path d="M328.546,240.135a.993.993,0,0,0-.286.206,1.1,1.1,0,0,0-.252.7,1.084,1.084,0,0,0,.069.372.932.932,0,0,0,.182.323.994.994,0,0,0,.286.206.656.656,0,0,0,.329.078.862.862,0,0,0,.616-.284.932.932,0,0,0,.182-.323.91.91,0,0,0,.069-.372,1.1,1.1,0,0,0-.252-.7A.823.823,0,0,0,328.546,240.135Zm0,0" transform="translate(-292.447 -210.673)"/><path d="M264.259,240.244a1.1,1.1,0,0,0-.252.7,1.084,1.084,0,0,0,.252.7.809.809,0,0,0,1.232,0,1.083,1.083,0,0,0,.252-.7.988.988,0,0,0-.535-.91A.8.8,0,0,0,264.259,240.244Zm0,0" transform="translate(-235.385 -210.576)"/><path d="M32.008,336.008h1.735v1.959H32.008Zm0,0" transform="translate(-28.538 -294.87)"/><path d="M96.008,336.008h1.735v1.959H96.008Zm0,0" transform="translate(-85.6 -294.87)"/><path d="M51.956,13.291q-.016-.047-.036-.092L44.982.466A.851.851,0,0,0,44.243,0H7.814a.851.851,0,0,0-.739.466L.136,13.2q-.02.045-.036.092c-.011.028-.022.054-.032.082a1.092,1.092,0,0,0-.061.339V57.787a.929.929,0,0,0,.867.979H51.181a.929.929,0,0,0,.867-.979V13.712a1.092,1.092,0,0,0-.061-.339C51.978,13.345,51.967,13.321,51.956,13.291Zm-12.05,6.3A5.058,5.058,0,0,1,38,23.664a3.883,3.883,0,0,1-4.061.443,14.261,14.261,0,0,0,4.183-9.167c.006-.083,0-.165.009-.249h1.775ZM22.494,24.76c-.244-.1-.483-.208-.719-.326l-.084-.046V16.869a1.038,1.038,0,0,0-.287-.728,2.051,2.051,0,0,1-.58-1.45V12.733h.867v.979a.874.874,0,1,0,1.735,0v-.979h.867v1.959a2.05,2.05,0,0,1-.58,1.449,1.04,1.04,0,0,0-.287.728v8.213c-.282-.08-.558-.176-.83-.282Zm-.8,21.274V40.157a.929.929,0,0,1,.867-.979.762.762,0,0,1,.151.015,1.049,1.049,0,0,1,.717,1.07v4.792a.929.929,0,0,0,.867.979h1.735v.979H22.559A.929.929,0,0,1,21.692,46.034Zm11.276-5.877a2.648,2.648,0,0,1,2.454,1.959H30.513A2.648,2.648,0,0,1,32.967,40.157ZM29.5,44.075h8.673v6.856H36.436v-4.9H34.7v4.9H31.232v-4.9H29.5v4.9H27.763V44.075Zm14.745,1.959a.929.929,0,0,1-.867.979H39.906v-.979h1.735a.929.929,0,0,0,.867-.979V40.263a1.049,1.049,0,0,1,.716-1.069.8.8,0,0,1,.713.218,1.037,1.037,0,0,1,.306.746Zm-4.337,4.9V48.972h1.735v1.959ZM26.028,48.972v1.959H24.294V48.972ZM26.9,52.89H50.314v3.918H15.62V52.89ZM1.743,14.692h8.673v4.9a4.643,4.643,0,0,1-4.337,4.9,4.643,4.643,0,0,1-4.337-4.9ZM7.476,26.463c.113-.007.224-.018.338-.018s.224.011.338.018a17.376,17.376,0,0,1,1.37,5.859H6.107a17.363,17.363,0,0,1,1.369-5.858ZM5.212,34.281H6.947V47.014h-5.2V34.281ZM1.743,48.972h5.2v7.836h-5.2ZM8.681,34.281h5.2V47.014h-5.2Zm2.577-1.959a19.7,19.7,0,0,0-1.007-5.289,6.818,6.818,0,0,1,3.573,5.289Zm-6.889,0H1.8a6.819,6.819,0,0,1,3.572-5.289A19.719,19.719,0,0,0,4.37,32.322ZM8.681,56.808V48.972h5.2v7.836Zm1.3-31.968A6.723,6.723,0,0,0,11.283,23.1a6.448,6.448,0,0,0,2.6,2.671v2A7.84,7.84,0,0,0,9.977,24.84Zm2.173-5.251v-4.9h1.776a14.627,14.627,0,0,0,2.782,7.814,13.23,13.23,0,0,0,1.413,1.6,3.887,3.887,0,0,1-4.062-.444A5.061,5.061,0,0,1,12.151,19.589Zm13.01-2.32a4.212,4.212,0,0,0,.867-2.577V6.856a.874.874,0,1,0-1.735,0v3.918h-.867V6.856a.874.874,0,1,0-1.735,0v3.918h-.867V6.856a.874.874,0,1,0-1.735,0v7.836a4.209,4.209,0,0,0,.867,2.576v5.981a11.091,11.091,0,0,1-1.917-1.995,12.984,12.984,0,0,1-1.45-12.51,10.406,10.406,0,0,1,9.42-6.785,9.325,9.325,0,0,1,.949.049,10.734,10.734,0,0,1,8.95,8,12.765,12.765,0,0,1-2.942,12.453v-1.89a.929.929,0,0,0,.867-.979V12.133A8.788,8.788,0,0,0,28.953,3.99a.783.783,0,0,0-.808.1,1.02,1.02,0,0,0-.382.81v20.4a9.3,9.3,0,0,1-2.6.129Zm4.337,3.3h1.735v3.31a9.874,9.874,0,0,1-1.735.908Zm2.6-1.959H29.5V6.526a7.059,7.059,0,0,1,2.6,5.606Zm9.541.979v-4.9h8.673v4.9a4.643,4.643,0,0,1-4.337,4.9A4.643,4.643,0,0,1,41.641,19.589Zm7.989-6.856H41.467L39.261,1.959h4.5Zm-9.947,0H38.129A13.931,13.931,0,0,0,32.264,1.959h5.217ZM19.8,1.959a12.46,12.46,0,0,0-1.561,1.232,14.248,14.248,0,0,0-4.31,9.3c-.006.081,0,.163-.008.244H12.458L15.394,1.959Zm-11.5,0h5.279L10.643,12.733H2.427ZM1.743,26.445V24.38a6.147,6.147,0,0,0,1.9,1.486,8.26,8.26,0,0,0-1.9,1.909Zm48.571-.979V50.931H43.375V48.972h2.6a2.786,2.786,0,0,0,2.6-2.938V42.116a.874.874,0,1,0-1.735,0v3.918a.929.929,0,0,1-.867.979h-.16a3.239,3.239,0,0,0,.16-.979V40.157a3.107,3.107,0,0,0-.922-2.245,2.4,2.4,0,0,0-2.114-.653,2.954,2.954,0,0,0-2.168,3v3.812h-.867V43.1a.929.929,0,0,0-.867-.979H37.217a4.662,4.662,0,0,0-3.383-3.82V37.219A3.714,3.714,0,0,0,37.3,33.3H35.569a1.857,1.857,0,0,1-1.735,1.959V32.322H32.1V35.26A1.857,1.857,0,0,1,30.365,33.3H28.63A3.714,3.714,0,0,0,32.1,37.219V38.3a4.662,4.662,0,0,0-3.383,3.82H26.9a.929.929,0,0,0-.867.979v.979h-.867V40.263a2.954,2.954,0,0,0-2.168-3,2.4,2.4,0,0,0-2.113.653,3.108,3.108,0,0,0-.922,2.244v5.877a3.239,3.239,0,0,0,.16.979h-.16a.929.929,0,0,1-.867-.979V42.116a.874.874,0,1,0-1.735,0v3.918a2.786,2.786,0,0,0,2.6,2.938h2.6v1.959H15.62V26.367a5.291,5.291,0,0,0,4.057-.974A11.346,11.346,0,0,0,22.155,26.7c.033.012.065.027.1.038.291.107.586.2.883.28l.087.022a10.774,10.774,0,0,0,9.163-1.649,5.437,5.437,0,0,0,4.622.859A6.131,6.131,0,0,0,40.773,23.1,6.054,6.054,0,0,0,45.265,26.4a5.666,5.666,0,0,0,5.049-2.02Zm0,0" transform="translate(-0.008 0)"/></svg>