<svg xmlns="http://www.w3.org/2000/svg" width="45.065" height="50.737" viewBox="0 0 45.065 50.737"><defs><style>.a{fill:#ffc15a;}.b{fill:#ff6977;}.c{fill:#ffd4be;}.d{fill:#e8e7e9;}.e{fill:#c6c4c8;}.f{fill:#79b2ff;}</style></defs><path class="a" d="M43.621,14.759H53.3V10H10v4.759Zm0,0" transform="translate(-9.12 -9.006)"/><g transform="translate(0.88 5.753)"><path class="b" d="M16.163,57.879s-.317,9.143-4.141,12.133A94.268,94.268,0,0,1,13.3,83.847H10V57.879Zm0,0" transform="translate(-10 -57.879)"/><path class="b" d="M431.984,57.879s.317,9.143,4.141,12.133a94.266,94.266,0,0,0-1.275,13.836h3.3V57.879Zm0,0" transform="translate(-394.842 -57.879)"/><path class="b" d="M26.876,398.4H16.328v-6.189a4.81,4.81,0,0,1,4.493-5.074h1.561a4.81,4.81,0,0,1,4.493,5.074Zm0,0" transform="translate(-15.771 -354.414)"/></g><path class="c" d="M53.368,359.221a3.066,3.066,0,0,1-.063.621,4.025,4.025,0,0,0-1.6-.332H50.144a4.022,4.022,0,0,0-1.6.332,3.041,3.041,0,0,1-.063-.621,2.462,2.462,0,1,1,4.888,0Zm0,0" transform="translate(-44.213 -321.031)"/><path class="b" d="M146.712,398.4H136.164v-6.189a4.81,4.81,0,0,1,4.493-5.074h1.561a4.81,4.81,0,0,1,4.493,5.074Zm0,0" transform="translate(-124.179 -348.661)"/><path class="c" d="M173.208,359.221a3.066,3.066,0,0,1-.063.621,4.025,4.025,0,0,0-1.6-.332h-1.561a4.021,4.021,0,0,0-1.6.332,3.042,3.042,0,0,1-.063-.621,2.462,2.462,0,1,1,4.888,0Zm0,0" transform="translate(-153.505 -321.031)"/><path class="b" d="M266.548,398.4H256v-6.189a4.81,4.81,0,0,1,4.493-5.074h1.561a4.81,4.81,0,0,1,4.493,5.074Zm0,0" transform="translate(-233.467 -348.661)"/><path class="c" d="M293.036,359.221a3.044,3.044,0,0,1-.063.621,4.021,4.021,0,0,0-1.6-.332h-1.561a4.025,4.025,0,0,0-1.6.332,3.066,3.066,0,0,1-.063-.621,2.462,2.462,0,1,1,4.888,0Zm0,0" transform="translate(-262.786 -321.031)"/><path class="b" d="M386.384,398.4H375.836v-6.189a4.81,4.81,0,0,1,4.493-5.074h1.561a4.81,4.81,0,0,1,4.493,5.074Zm0,0" transform="translate(-342.756 -348.661)"/><path class="c" d="M412.876,359.221a3.044,3.044,0,0,1-.063.621,4.022,4.022,0,0,0-1.6-.332h-1.561a4.025,4.025,0,0,0-1.6.332,3.066,3.066,0,0,1-.063-.621,2.462,2.462,0,1,1,4.888,0Zm0,0" transform="translate(-372.078 -321.031)"/><path class="d" d="M80.016,57.879H111V83.847H80.016Zm0,0" transform="translate(-72.973 -52.126)"/><path class="e" d="M183.752,109.543c0,4.813-3.455,8.715-7.718,8.715s-7.718-3.9-7.718-8.715,3.455-8.715,7.718-8.715S183.752,104.73,183.752,109.543Zm0,0" transform="translate(-153.502 -90.806)"/><path class="f" d="M229.82,156.385v-5.592a.869.869,0,0,1,1.31-.838l4.154,2.81a1.045,1.045,0,0,1,0,1.679l-4.154,2.782A.87.87,0,0,1,229.82,156.385Zm0,0" transform="translate(-209.592 -134.923)"/><path d="M44.185,0H.88A.942.942,0,0,0,0,.994V31.721a.942.942,0,0,0,.88.994h43.3a.942.942,0,0,0,.88-.994V.994A.942.942,0,0,0,44.185,0ZM41.023,18.879h.085a94.78,94.78,0,0,0-1.09,11.848H38.9V14.658a12.166,12.166,0,0,0,1.418,2.63,1.075,1.075,0,0,0-.178.6A.942.942,0,0,0,41.023,18.879Zm1.432-1.988c-2.534-2.244-3.278-7.827-3.482-10.145H43.3V16.892ZM4.042,18.879a.942.942,0,0,0,.88-.994,1.075,1.075,0,0,0-.178-.6,12.166,12.166,0,0,0,1.418-2.63V30.727H5.047a94.706,94.706,0,0,0-1.09-11.847Zm1.507-8.41c-.643,3.071-1.657,5.281-2.939,6.423H1.76V6.747H6.093A32.265,32.265,0,0,1,5.55,10.469ZM1.76,30.727V18.879h.408A94.817,94.817,0,0,1,3.287,30.727Zm6.163,0V6.747H27.46a.942.942,0,0,0,.88-.994.942.942,0,0,0-.88-.994H1.76V1.988H43.3V4.759H34.5a.942.942,0,0,0-.88.994.942.942,0,0,0,.88.994h2.641v23.98Zm33.856,0A94.972,94.972,0,0,1,42.9,18.879H43.3V30.727Zm0,0"/><path d="M47.445,350.234c0-.007,0-.013,0-.019a3.563,3.563,0,0,0-3.324-3.754,3.563,3.563,0,0,0-3.324,3.754c0,.007,0,.013,0,.019a5.722,5.722,0,0,0-1.95,2.022,5.729,5.729,0,0,0-1.95-2.022c0-.006,0-.012,0-.019a3.563,3.563,0,0,0-3.324-3.754,3.563,3.563,0,0,0-3.324,3.754c0,.007,0,.013,0,.019a5.726,5.726,0,0,0-1.95,2.022,5.727,5.727,0,0,0-1.95-2.022c0-.007,0-.013,0-.019a3.563,3.563,0,0,0-3.324-3.754,3.562,3.562,0,0,0-3.323,3.754c0,.007,0,.013,0,.019a5.726,5.726,0,0,0-1.95,2.022,5.724,5.724,0,0,0-1.95-2.022c0-.007,0-.013,0-.019a3.563,3.563,0,0,0-3.324-3.754,3.563,3.563,0,0,0-3.324,3.754c0,.007,0,.013,0,.019a6.221,6.221,0,0,0-2.831,5.344v6.189a.942.942,0,0,0,.88.994h1.73a1,1,0,0,0,0-1.988h-.85v-5.2a4.1,4.1,0,0,1,2.365-3.829,3.311,3.311,0,0,1,1.226-.25c.13,0,.261,0,.391,0,.4,0,.79,0,1.185,0a3.332,3.332,0,0,1,1.257.252,4.1,4.1,0,0,1,2.362,3.828v5.2h-.9a1,1,0,0,0,0,1.988H49.4a.942.942,0,0,0,.88-.994v-6.189A6.221,6.221,0,0,0,47.445,350.234Zm-36.418-.677a1.5,1.5,0,0,1,2.9,0,7.993,7.993,0,0,0-1.12-.047H11.767A5.3,5.3,0,0,0,11.027,349.557Zm31.643,0a1.5,1.5,0,0,1,2.9,0,8,8,0,0,0-1.12-.047H43.41A5.3,5.3,0,0,0,42.671,349.557Zm-10.548,0a1.5,1.5,0,0,1,2.9,0,8,8,0,0,0-1.12-.047H32.863A5.3,5.3,0,0,0,32.123,349.557Zm-10.547,0a1.5,1.5,0,0,1,2.9,0,8,8,0,0,0-1.12-.047H22.315A5.3,5.3,0,0,0,21.575,349.557Zm-2.943,6.021a4.1,4.1,0,0,1,2.361-3.827,3.309,3.309,0,0,1,1.232-.252c.128,0,.256,0,.384,0,.4,0,.792,0,1.188,0a3.34,3.34,0,0,1,1.256.251,4.094,4.094,0,0,1,2.366,3.829v5.2H18.633Zm10.548,0a4.1,4.1,0,0,1,2.366-3.83,3.346,3.346,0,0,1,1.247-.25c.126,0,.253,0,.379,0,.392,0,.784,0,1.176,0a3.338,3.338,0,0,1,1.257.252,4.1,4.1,0,0,1,2.362,3.828v5.2H29.18Zm19.335,5.2H39.728v-5.2a4.094,4.094,0,0,1,2.363-3.828,3.3,3.3,0,0,1,1.228-.252c.131,0,.261,0,.392,0,.4,0,.79,0,1.185,0a3.342,3.342,0,0,1,1.255.251,4.094,4.094,0,0,1,2.365,3.829Zm0,0" transform="translate(-5.768 -312.025)"/><path d="M343.454,48.491a.885.885,0,0,0-.875-.611.922.922,0,0,0-.783.719,1.074,1.074,0,0,0,.333,1.081.806.806,0,0,0,1,.018A1.078,1.078,0,0,0,343.454,48.491Zm0,0" transform="translate(-311.682 -43.118)"/><path d="M166.914,90.828c-4.741,0-8.6,4.355-8.6,9.709s3.857,9.709,8.6,9.709,8.6-4.355,8.6-9.709S171.655,90.828,166.914,90.828Zm0,17.43c-3.77,0-6.838-3.464-6.838-7.721s3.067-7.721,6.838-7.721,6.838,3.464,6.838,7.721S170.685,108.259,166.914,108.259Zm0,0" transform="translate(-144.382 -81.8)"/><path d="M226.617,142.887l-4.154-2.81a1.559,1.559,0,0,0-1.758-.024,2,2,0,0,0-.885,1.715v5.592a2.006,2.006,0,0,0,.882,1.713,1.558,1.558,0,0,0,1.754-.017l4.154-2.782a2.109,2.109,0,0,0,.007-3.387Zm-5.037,4.444V141.8l4.111,2.78Zm0,0" transform="translate(-200.472 -125.899)"/><path d="M67.952,491.084a.885.885,0,0,0-.857-.612.909.909,0,0,0-.789.672,1.083,1.083,0,0,0,.283,1.095.809.809,0,0,0,1.015.069A1.074,1.074,0,0,0,67.952,491.084Zm0,0" transform="translate(-60.428 -441.721)"/></svg>