<svg xmlns="http://www.w3.org/2000/svg" width="120.829" height="98.192" viewBox="0 0 120.829 98.192"><defs><style>.a{fill:#ffbcab;}.b{fill:#315591;}.c{fill:#ff9478;}.d{fill:#52a2e7;}.e{fill:#4675cf;}.f{fill:#e5e5e5;}.g{fill:#acaab1;}</style></defs><g transform="translate(0 -47.961)"><path class="a" d="M201.734,81.239a11.779,11.779,0,0,0-21.555,8.777l-.411.411L176.5,85.01l-7.9-13.111,7.522-13.163a1.639,1.639,0,0,0-.678-2.273h0a8.08,8.08,0,0,0-10.687,3.2L158.8,68.97a5.632,5.632,0,0,0-.149,5.831l5.285,9.257a1.571,1.571,0,0,1-.362,1.989l-23.427,19.4v8.634h44.311l.116-4.089a6,6,0,0,0,2.038-8.21l-2.994-4.971.466-.466a11.778,11.778,0,0,0,17.658-15.1Z" transform="translate(-107.069 -5.821)"/><path class="b" d="M334.659,145.846a11.78,11.78,0,0,0-20.535.632,56.794,56.794,0,0,0,21.967,7.88A11.736,11.736,0,0,0,334.659,145.846Z" transform="translate(-239.993 -70.428)"/><path class="c" d="M186.447,248.713H145.533L140.356,253v8.634h44.311l.116-4.089a6,6,0,0,0,2.038-8.21Z" transform="translate(-107.233 -153.376)"/><path class="d" d="M124.784,269.482a9.177,9.177,0,0,0-12.9.082l-.09.09a9.177,9.177,0,0,1-12.978,0l-.014-.014a9.177,9.177,0,0,0-12.973-.005l-.008.008a9.177,9.177,0,0,1-12.973-.005l-.014-.014a9.177,9.177,0,0,0-12.978,0l-.09.09a9.177,9.177,0,0,1-12.9.082l-.321-.313a9.177,9.177,0,0,0-12.9.082l-.09.09a9.177,9.177,0,0,1-12.978,0l-.008-.009a9.177,9.177,0,0,0-12.978,0v34.836c0-.608,117.181,0,117.181,0V269.64" transform="translate(-5.808 -167.253)"/><path class="e" d="M131.528,332.748a10.936,10.936,0,0,1-7.658-3.1l-.321-.313a7.41,7.41,0,0,0-10.374.065l-.09.09a1.795,1.795,0,0,1-2.538-2.538l.09-.09a11.013,11.013,0,0,1,15.417-.1l.321.313a7.41,7.41,0,0,0,10.374-.065l.09-.09a10.972,10.972,0,0,1,15.516,0,7.4,7.4,0,0,0,10.45.018,10.989,10.989,0,0,1,15.518,0l.024.025a1.794,1.794,0,1,1-2.559,2.516l-.014-.014a7.389,7.389,0,0,0-10.426.006,10.988,10.988,0,0,1-15.518,0,7.394,7.394,0,0,0-10.454-.014l-.09.09A10.94,10.94,0,0,1,131.528,332.748Z" transform="translate(-84.057 -210.641)"/><rect class="f" width="117.24" height="9.751" transform="translate(1.794 134.607)"/><g transform="translate(15.035 134.607)"><rect class="g" width="16.916" height="9.848" transform="translate(29.835)"/><rect class="g" width="13.868" height="9.848"/><rect class="g" width="16.875" height="9.848" transform="translate(61.164 0.072)"/><rect class="g" width="10.667" height="9.848" transform="translate(93.333 0.072)"/></g><rect class="e" width="117.18" height="5.713" transform="translate(1.73 128.894)"/><path d="M113.087,329.5l.09-.09a7.409,7.409,0,0,1,10.374-.065l.321.313a11.014,11.014,0,0,0,15.418-.1l.09-.09a7.4,7.4,0,0,1,10.454.014,10.988,10.988,0,0,0,15.518,0,7.389,7.389,0,0,1,10.425-.006l.014.014a1.794,1.794,0,0,0,2.559-2.516l-.024-.025a10.989,10.989,0,0,0-15.518,0,7.4,7.4,0,0,1-10.45-.018,10.972,10.972,0,0,0-15.516,0l-.09.09a7.41,7.41,0,0,1-10.374.065l-.321-.313a11.013,11.013,0,0,0-15.417.1l-.09.09a1.794,1.794,0,1,0,2.538,2.537Z" transform="translate(-84.059 -210.645)"/><path d="M120.77,134.4V102.387c0-.026,0-.053,0-.079a1.79,1.79,0,0,0-.54-1.363,11.013,11.013,0,0,0-15.417.1l-.09.09a7.387,7.387,0,0,1-10.43.011l-.024-.025A10.989,10.989,0,0,0,82.182,98.8a7.7,7.7,0,0,0-1.107-3.766l-.308-.511c.179.052.359.1.541.148a13.656,13.656,0,0,0,3.294.4A13.588,13.588,0,0,0,97.75,84.765c.066-.266.121-.534.171-.8,0-.012,0-.024.006-.036a13.572,13.572,0,0,0-26.524-5.7c-.045.182-.084.365-.122.547l-7.662-12.72,7.852-13.742a1.794,1.794,0,0,0-.743-2.489L69.2,49.043A9.861,9.861,0,0,0,56.16,52.906l-5.944,9.275a7.4,7.4,0,0,0-.2,7.689l5.192,9.094L32.14,98.067a10.881,10.881,0,0,0-5.559,2.976l-.09.09a7.393,7.393,0,0,1-10.449-.008,10.984,10.984,0,0,0-15.516,0A1.793,1.793,0,0,0,0,102.393v32.452H0v9.514a1.794,1.794,0,0,0,1.794,1.794h117.24a1.794,1.794,0,0,0,1.794-1.794v-9.514A1.8,1.8,0,0,0,120.77,134.4ZM89.728,90.048A9.978,9.978,0,0,1,75.255,77.939L93.994,84.8A9.937,9.937,0,0,1,89.728,90.048Zm-10.3-17.1a9.919,9.919,0,0,1,5.133-1.436,10.048,10.048,0,0,1,2.423.3,9.972,9.972,0,0,1,7.57,9.372L77.158,74.814A9.962,9.962,0,0,1,79.425,72.943ZM27.2,136.639v5.925H14.915v-5.925Zm3.589,0H43.075v5.925H30.789v-5.925Zm15.874,0H58.949v5.925H46.664Zm15.875,0H74.824v5.925H62.538v-5.925Zm15.875,0H90.7v5.925H78.413v-5.925Zm15.874,0h12.285v5.925H94.287ZM59.076,78.495l-5.939-10.4a3.826,3.826,0,0,1,.1-3.973l5.968-9.312c.017-.026.033-.052.048-.079a6.276,6.276,0,0,1,8.167-2.558l-7.44,13.019A1.8,1.8,0,0,0,60,67l18,29.88a4.19,4.19,0,0,1-1.39,5.723,7.387,7.387,0,0,1-8.287-1.479L68.3,101.1a10.972,10.972,0,0,0-15.518,0l-.088.089a7.41,7.41,0,0,1-10.374.066L42,100.945A10.857,10.857,0,0,0,37.483,98.3L58.661,80.767A1.8,1.8,0,0,0,59.076,78.495ZM3.589,103.184a7.4,7.4,0,0,1,9.923.486,10.972,10.972,0,0,0,15.516,0l.09-.09a7.41,7.41,0,0,1,10.374-.066l.322.314a11.013,11.013,0,0,0,15.419-.1l.088-.089a7.382,7.382,0,0,1,10.43-.011l.024.025a10.986,10.986,0,0,0,15.51.006l.016-.016a7.389,7.389,0,0,1,10.418,0l.024.025a10.984,10.984,0,0,0,15.516,0l.09-.09a7.414,7.414,0,0,1,9.832-.544v30c-5.288-.026-21.543-.1-40.143-.169a1.743,1.743,0,0,0-.828,0c-5.038-.017-10.238-.033-15.43-.047l-.036,0-.033,0h-.094c-10.935-.029-20.449-.043-28.441-.043q-6.613,0-11.82.013-4.045.01-7.233.029h0c-2.435.014-4.489.031-6.135.052-1.408.018-2.547.038-3.394.061V103.184Zm0,33.455h7.737v5.925H3.589Zm113.651,5.925h-7.079v-5.925h7.079Z"/></g></svg>