<svg xmlns="http://www.w3.org/2000/svg" width="47.225" height="54.53" viewBox="0 0 47.225 54.53"><defs><style>.a{fill:#ffd578;}.b{fill:#54596e;}.c{fill:#55a6ff;}.d{fill:#ff927d;}</style></defs><path class="a" d="M178.949,86.366a3.964,3.964,0,1,1-3.935-4.444A4.213,4.213,0,0,1,178.949,86.366Zm0,0" transform="translate(-151.401 -71.256)"/><path class="b" d="M172.908,80.427h.787c0-2.946-2.114-5.333-4.722-5.333s-4.722,2.387-4.723,5.333,2.114,5.332,4.723,5.333,4.722-2.387,4.722-5.333h-1.574a3.783,3.783,0,0,1-.922,2.513,2.9,2.9,0,0,1-4.452,0,3.887,3.887,0,0,1,0-5.028,2.9,2.9,0,0,1,4.452,0,3.785,3.785,0,0,1,.922,2.514Zm0,0" transform="translate(-145.36 -65.317)"/><path class="a" d="M231.969,75.485l7.52-15.191a1.48,1.48,0,0,1,2.151-.651,1.908,1.908,0,0,1,.576,2.428L234.7,77.263a1.48,1.48,0,0,1-2.151.65A1.908,1.908,0,0,1,231.969,75.485Zm0,0" transform="translate(-205.085 -51.67)"/><path class="b" d="M225.932,69.541l.687.433,7.52-15.191-.687-.433.682.444a.775.775,0,0,1,.683-.446.708.708,0,0,1,.389.119l0,0a.915.915,0,0,1,.395.772.971.971,0,0,1-.106.443l0,.01-7.52,15.191.687.434-.681-.445a.774.774,0,0,1-.683.444.719.719,0,0,1-.394-.12l0,0a.916.916,0,0,1-.394-.772.963.963,0,0,1,.1-.44l.006-.012-.687-.433-.681-.446a2.92,2.92,0,0,0-.317,1.332,2.746,2.746,0,0,0,1.181,2.311l0,0a2.158,2.158,0,0,0,1.177.355,2.324,2.324,0,0,0,2.046-1.332l.005-.011,7.52-15.191-.687-.434.682.443a2.939,2.939,0,0,0,.317-1.331A2.75,2.75,0,0,0,236,52.928l0,0a2.136,2.136,0,0,0-1.182-.36,2.325,2.325,0,0,0-2.047,1.335l-.005.01-7.52,15.191.687.434-.681-.446Zm0,0" transform="translate(-199.047 -45.726)"/><path class="a" d="M48.161,300.869l10.605-12.627a1.449,1.449,0,0,1,2.226-.032,1.943,1.943,0,0,1,.028,2.513L50.414,303.352a1.45,1.45,0,0,1-2.226.031A1.943,1.943,0,0,1,48.161,300.869Zm0,0" transform="translate(-42.259 -250.247)"/><path class="b" d="M42.121,294.928l.571.611L53.3,282.912l-.571-.611.564.619A.724.724,0,0,1,54.4,282.9v0a.94.94,0,0,1,.237.635.95.95,0,0,1-.225.622l-.006.008L43.8,296.8l.571.612-.563-.622a.725.725,0,0,1-1.113.016.972.972,0,0,1-.015-1.256l.009-.01-.571-.611-.563-.622a2.916,2.916,0,0,0,.041,3.772,2.176,2.176,0,0,0,3.339-.046l.008-.009,10.606-12.628-.571-.611.564.619a2.916,2.916,0,0,0-.044-3.77v0a2.174,2.174,0,0,0-3.34.047l-.007.008L41.55,294.316l.571.612-.563-.622Zm0,0" transform="translate(-36.22 -244.306)"/><path class="a" d="M98.854,75.483l-7.52-15.192a1.48,1.48,0,0,0-2.15-.651,1.909,1.909,0,0,0-.576,2.429L96.128,77.26a1.48,1.48,0,0,0,2.15.65A1.906,1.906,0,0,0,98.854,75.483Zm0,0" transform="translate(-78.251 -51.668)"/><path class="b" d="M92.815,69.541l.687-.434-7.52-15.192-.005-.01A2.324,2.324,0,0,0,83.93,52.57a2.134,2.134,0,0,0-1.182.36l0,0a2.751,2.751,0,0,0-1.181,2.311,2.929,2.929,0,0,0,.317,1.33l.682-.443-.687.434L89.4,71.752l.005.011a2.323,2.323,0,0,0,2.046,1.332,2.155,2.155,0,0,0,1.177-.355l0,0a2.748,2.748,0,0,0,1.181-2.311,2.925,2.925,0,0,0-.318-1.333l-.681.447.687-.434-.687.434-.681.446a.956.956,0,0,1,.1.44.917.917,0,0,1-.394.772l0,0a.72.72,0,0,1-.395.12.774.774,0,0,1-.683-.444l-.681.445.687-.434-7.52-15.192,0-.009a.975.975,0,0,1-.106-.444.917.917,0,0,1,.394-.772l0,0a.7.7,0,0,1,.389-.118.774.774,0,0,1,.683.446l.682-.444-.687.434,7.52,15.191.006.013Zm0,0" transform="translate(-72.213 -45.726)"/><path class="a" d="M253.252,290.83a1.418,1.418,0,0,1-.26-.024,1.767,1.767,0,0,1-1.294-2.046l1.374-9.308-5.97-3a1.876,1.876,0,0,1-.8-2.347,1.506,1.506,0,0,1,2.078-.9l7.083,3.555a1.836,1.836,0,0,1,.913,1.917L254.8,289.344A1.645,1.645,0,0,1,253.252,290.83Zm0,0" transform="translate(-217.831 -237.501)"/><path class="b" d="M247.209,284.887V284l-.131-.013a.865.865,0,0,1-.658-.875l.011-.147,1.374-9.309a.917.917,0,0,0-.457-.958l-5.97-3a.9.9,0,0,1-.467-.813.97.97,0,0,1,.068-.359v0a.789.789,0,0,1,.718-.53.692.692,0,0,1,.316.077l.005,0,7.083,3.556h0a.9.9,0,0,1,.467.811l-.011.149-1.574,10.664a.822.822,0,0,1-.774.743v1.777a2.465,2.465,0,0,0,2.327-2.227l1.574-10.666a3.034,3.034,0,0,0,.032-.44,2.7,2.7,0,0,0-1.4-2.435l-7.083-3.555.005,0a2.107,2.107,0,0,0-.966-.235,2.366,2.366,0,0,0-2.157,1.586v0a2.947,2.947,0,0,0-.2,1.083,2.7,2.7,0,0,0,1.4,2.437l5.413,2.717-1.274,8.63a3.024,3.024,0,0,0-.032.44,2.6,2.6,0,0,0,1.974,2.628,2.087,2.087,0,0,0,.39.036Zm0,0" transform="translate(-211.789 -231.558)"/><path class="c" d="M135.438,181.443l.787-8.572a2.088,2.088,0,0,0-1.951-2.2h-7.118a2.088,2.088,0,0,0-1.951,2.2l.787,9.531-4.986,5.1,4.61,4.843,5.228-6.564,7.442,3.805,1.831-5.914Zm0,0" transform="translate(-107.103 -148.447)"/><path class="b" d="M129.4,175.5l.783.092.787-8.572,0-.092a2.931,2.931,0,0,0-2.738-3.092h-7.118a2.931,2.931,0,0,0-2.738,3.092l0,.082.75,9.088-4.694,4.8a.969.969,0,0,0-.008,1.31l4.611,4.843a.739.739,0,0,0,.571.237.76.76,0,0,0,.55-.293l4.843-6.08,6.917,3.537a.7.7,0,0,0,.635.007.852.852,0,0,0,.433-.524l1.831-5.914a.93.93,0,0,0-.437-1.112l-4.681-2.226-.306.819.783.092-.783-.092-.305.819,4,1.9-1.3,4.209-6.658-3.4a.727.727,0,0,0-.91.216l-4.692,5.891-3.4-3.567,4.35-4.447a.957.957,0,0,0,.255-.742l-.787-9.531-.784.083h.787a1.249,1.249,0,0,1,1.164-1.315h7.118a1.248,1.248,0,0,1,1.163,1.315h.787l-.783-.092-.787,8.572a.909.909,0,0,0,.477.911Zm0,0" transform="translate(-101.062 -142.508)"/><path class="b" d="M62.638,56.391H94.909a.9.9,0,0,0,0-1.778H62.638a.9.9,0,0,0,0,1.778" transform="translate(-54.768 -47.503)"/><path class="d" d="M48.2,6.828h2.361V21.049H48.2Zm0,0" transform="translate(-42.686 -5.939)"/><path class="b" d="M44.519,15.11v-.889H42.945V1.777h.787V15.11h.787v0h.787V.889A.959.959,0,0,0,45.076.26.75.75,0,0,0,44.519,0H42.158A.749.749,0,0,0,41.6.26a.957.957,0,0,0-.231.629V15.11a.942.942,0,0,0,.231.628.737.737,0,0,0,.556.26h2.361a.738.738,0,0,0,.557-.26.944.944,0,0,0,.231-.628Zm0,0" transform="translate(-36.648 0)"/><path class="d" d="M27.715,6.828h2.361V21.049H27.715Zm0,0" transform="translate(-24.567 -5.939)"/><path class="b" d="M24.039,15.11v-.889H22.465V1.777h.787V15.11h.787v0h.787V.889A.959.959,0,0,0,24.6.26.75.75,0,0,0,24.039,0H21.677a.749.749,0,0,0-.556.26.957.957,0,0,0-.231.629V15.11a.944.944,0,0,0,.231.628.737.737,0,0,0,.556.26h2.361a.738.738,0,0,0,.557-.26.944.944,0,0,0,.231-.628Zm0,0" transform="translate(-18.529 0)"/><path class="d" d="M362.223,6.828h2.361V21.049h-2.361Zm0,0" transform="translate(-320.507 -5.939)"/><path class="b" d="M358.543,15.11v-.889h-1.574V1.777h.787V15.11h.787v0h.787V.889A.959.959,0,0,0,359.1.26a.75.75,0,0,0-.557-.26h-2.361a.749.749,0,0,0-.556.26.957.957,0,0,0-.231.629V15.11a.942.942,0,0,0,.231.628.737.737,0,0,0,.556.26h2.361a.738.738,0,0,0,.557-.26.944.944,0,0,0,.231-.628Zm0,0" transform="translate(-314.466 0)"/><path class="d" d="M341.742,6.828H344.1V21.049h-2.361Zm0,0" transform="translate(-302.388 -5.939)"/><g transform="translate(0 0)"><path class="b" d="M338.066,15.11v-.889h-1.574V1.777h.787V15.11h.787v0h.787V.889a.959.959,0,0,0-.231-.629.75.75,0,0,0-.557-.26H335.7a.749.749,0,0,0-.556.26.957.957,0,0,0-.231.629V15.11a.942.942,0,0,0,.231.628.737.737,0,0,0,.556.26h2.361a.738.738,0,0,0,.557-.26.944.944,0,0,0,.231-.628Zm0,0" transform="translate(-296.351 0)"/><path class="b" d="M1.2,56.391H3.558a.9.9,0,0,0,0-1.778H1.2a.9.9,0,0,0,0,1.778" transform="translate(-0.41 -47.503)"/><path class="b" d="M376.662,56.391h2.361a.9.9,0,0,0,0-1.778h-2.361a.9.9,0,0,0,0,1.778" transform="translate(-332.585 -47.503)"/></g></svg>