<svg xmlns="http://www.w3.org/2000/svg" width="116" height="116.001" viewBox="0 0 116 116.001"><defs><style>.a{fill:#dfc49c;}.b{fill:#ffe0b2;}.c{fill:#02a9f4;}.d{fill:#4527a0;}.e{fill:#673ab7;}.f{fill:#90bae1;}.g{fill:#549414;}.h{fill:#60a917;}.i{fill:#00838f;}.j{fill:#00bcd4;}</style></defs><g transform="translate(-0.009 0)"><path class="a" d="M139.324,63.148v73.465a3.878,3.878,0,0,1-3.867,3.867H46.527a3.878,3.878,0,0,1-3.867-3.867V63.148l45.432-27.26,2.9-1.74Zm0,0" transform="translate(-32.989 -26.412)"/><path class="b" d="M133.525,69.088v73.465a3.878,3.878,0,0,1-3.867,3.867H46.527a3.878,3.878,0,0,1-3.867-3.867V69.088l45.432-27.26Zm0,0" transform="translate(-32.989 -32.352)"/><path class="c" d="M62.579,18.778a3.869,3.869,0,0,1,4.021,0L114.388,47.87a4.1,4.1,0,0,0,5.78-1.557l.008-.014a4.1,4.1,0,0,0-1.457-5.407L66.6,9.115a3.869,3.869,0,0,0-4.026,0L10.462,40.892A4.1,4.1,0,0,0,9.006,46.3l.007.014a4.1,4.1,0,0,0,5.781,1.557Zm0,0" transform="translate(-6.586 -6.613)"/><path class="d" d="M120.925,317.683v40.6H93.859v-40.6a1.938,1.938,0,0,1,1.933-1.933h23.2A1.938,1.938,0,0,1,120.925,317.683Zm0,0" transform="translate(-72.588 -244.215)"/><path class="e" d="M115.126,317.683v40.6H93.859v-40.6a1.938,1.938,0,0,1,1.933-1.933h17.4A1.939,1.939,0,0,1,115.126,317.683Zm0,0" transform="translate(-72.588 -244.215)"/><path class="f" d="M129.925,349.883h7.734a1.933,1.933,0,0,1,1.933,1.933v3.867a1.933,1.933,0,0,1-1.933,1.934h-7.734a1.933,1.933,0,0,1-1.933-1.934v-3.867A1.933,1.933,0,0,1,129.925,349.883Zm0,0" transform="translate(-98.988 -270.615)"/><path class="g" d="M209.323,130.281a9.679,9.679,0,0,1-16.51,6.844,3.914,3.914,0,0,0-5.645,0,9.149,9.149,0,0,1-1.334,1.1,9.667,9.667,0,1,1-7-17.5,1.929,1.929,0,0,0,1.6-1.605,9.586,9.586,0,0,1,3.751-6.244h.019a9.649,9.649,0,0,1,15.331,6.244,1.931,1.931,0,0,0,1.605,1.605A9.657,9.657,0,0,1,209.323,130.281Zm0,0" transform="translate(-131.986 -85.812)"/><path class="h" d="M203.538,138.814a9.689,9.689,0,0,1-3.867,7.733,9.71,9.71,0,0,1-6.845-2.823,3.914,3.914,0,0,0-5.645,0,9.15,9.15,0,0,1-1.334,1.1,3.871,3.871,0,0,0-4.466.831,9.178,9.178,0,0,1-1.044.889,9.666,9.666,0,0,1-1.489-19.217,1.929,1.929,0,0,0,1.6-1.605,9.586,9.586,0,0,1,3.751-6.245h.019a9.639,9.639,0,0,1,9.531,8.178,1.927,1.927,0,0,0,1.6,1.6A9.66,9.66,0,0,1,203.538,138.814Zm0,0" transform="translate(-132.001 -92.412)"/><path class="i" d="M308.656,317.683v21.266H281.59V317.683a1.939,1.939,0,0,1,1.934-1.933h23.2A1.939,1.939,0,0,1,308.656,317.683Zm0,0" transform="translate(-217.787 -244.215)"/><path class="j" d="M302.856,317.683v21.266H281.59V317.683a1.939,1.939,0,0,1,1.934-1.933h17.4A1.938,1.938,0,0,1,302.856,317.683Zm0,0" transform="translate(-217.787 -244.215)"/><path d="M128.856,247.22H39.925a5.807,5.807,0,0,1-5.8-5.8V171.59a1.933,1.933,0,1,1,3.867,0v69.83a1.936,1.936,0,0,0,1.934,1.934h88.931a1.936,1.936,0,0,0,1.934-1.934V171.59a1.933,1.933,0,1,1,3.867,0v69.83A5.807,5.807,0,0,1,128.856,247.22Zm0,0" transform="translate(-26.387 -131.22)"/><path d="M6.042,43.8A6.041,6.041,0,0,1,2.855,32.636L54.985.851a5.774,5.774,0,0,1,6.037,0l52.116,31.776A6.04,6.04,0,1,1,106.782,42.9L59.01,13.815a1.932,1.932,0,0,0-2.012,0L9.211,42.908A6.016,6.016,0,0,1,6.042,43.8ZM58,3.87A1.936,1.936,0,0,0,57,4.153L4.881,35.929a2.173,2.173,0,0,0,2.305,3.685l47.8-29.1h0a5.783,5.783,0,0,1,6.03,0L108.8,39.607a2.169,2.169,0,0,0,1.721.259,2.146,2.146,0,0,0,1.348-1.074,2.174,2.174,0,0,0-.761-2.871L59.01,4.153A1.923,1.923,0,0,0,58,3.87Zm0,0" transform="translate(0 0)"/><path d="M114.324,353.614H87.258a1.933,1.933,0,0,1-1.934-1.934v-40.6a3.871,3.871,0,0,1,3.867-3.867h23.2a3.872,3.872,0,0,1,3.867,3.867v40.6A1.933,1.933,0,0,1,114.324,353.614Zm-25.133-3.867h23.2V311.081h-23.2Zm0,0" transform="translate(-65.987 -237.613)"/><path d="M131.057,352.947h-7.734a3.871,3.871,0,0,1-3.867-3.867v-3.867a3.872,3.872,0,0,1,3.867-3.867h7.734a3.872,3.872,0,0,1,3.867,3.867v3.867A3.871,3.871,0,0,1,131.057,352.947Zm-7.734-7.733v3.867h7.736l0-3.867Zm0,0" transform="translate(-92.386 -264.013)"/><path d="M129.925,417.35a1.933,1.933,0,0,1-1.933-1.934V411.55a1.933,1.933,0,0,1,3.867,0v3.867A1.933,1.933,0,0,1,129.925,417.35Zm0,0" transform="translate(-98.988 -316.816)"/><path d="M125.257,413.484h-3.867a1.933,1.933,0,1,1,0-3.867h3.867a1.933,1.933,0,0,1,0,3.867Zm0,0" transform="translate(-92.386 -316.816)"/><path d="M193.056,135.274a11.6,11.6,0,0,1-8.2-3.381,2.016,2.016,0,0,0-2.911-.015,11.6,11.6,0,1,1-10-19.665,11.592,11.592,0,0,1,22.91.012,11.593,11.593,0,0,1-1.794,23.048Zm-9.667-7.892a5.871,5.871,0,0,1,4.2,1.777,7.738,7.738,0,1,0,6.663-13.124,3.881,3.881,0,0,1-3.22-3.2,7.731,7.731,0,0,0-15.279-.018,3.877,3.877,0,0,1-3.205,3.22,7.734,7.734,0,1,0,6.662,13.111A5.862,5.862,0,0,1,183.389,127.382Zm0,0" transform="translate(-125.385 -79.206)"/><path d="M249.391,228.815a1.934,1.934,0,0,1-1.934-1.934v-11.6a1.933,1.933,0,1,1,3.867,0v11.6A1.934,1.934,0,0,1,249.391,228.815Zm0,0" transform="translate(-191.387 -165.012)"/><path d="M240.057,268.414h-7.733a1.934,1.934,0,0,1,0-3.867h7.733a1.934,1.934,0,0,1,0,3.867Zm0,0" transform="translate(-178.187 -204.612)"/><path d="M302.058,334.281H274.991a1.933,1.933,0,0,1-1.933-1.934V311.081a3.871,3.871,0,0,1,3.867-3.867h23.2a3.87,3.87,0,0,1,3.867,3.867v21.266A1.933,1.933,0,0,1,302.058,334.281Zm-25.133-3.867h23.2V311.081h-23.2Zm0,0" transform="translate(-211.188 -237.613)"/><path d="M292.725,413.484h-34.8a1.933,1.933,0,0,1,0-3.867h34.8a1.933,1.933,0,1,1,0,3.867Zm0,0" transform="translate(-197.989 -316.816)"/><path d="M334.726,334.281a1.933,1.933,0,0,1-1.933-1.934v-23.2a1.933,1.933,0,1,1,3.867,0v23.2A1.933,1.933,0,0,1,334.726,334.281Zm0,0" transform="translate(-257.389 -237.613)"/><path d="M294.325,362.281H274.991a1.933,1.933,0,0,1,0-3.867h19.334a1.933,1.933,0,0,1,0,3.867Zm0,0" transform="translate(-211.188 -277.213)"/></g></svg>