<svg xmlns="http://www.w3.org/2000/svg" width="55.458" height="52.848" viewBox="0 0 55.458 52.848"><defs><style>.a{fill:#e1effb;}.b{fill:#ccdfed;}.c{fill:#2de8e8;}.d{fill:#11b9c1;}.e{fill:#61aff7;}.f{fill:#55a2f0;}.g{fill:#21d8de;}.h{fill:#2c5871;}.i{fill:#1d4859;}</style></defs><rect class="a" width="2.542" height="35.298" transform="translate(44.864 16.657)"/><rect class="b" width="1.271" height="35.298" transform="translate(46.134 16.657)"/><g transform="translate(36.906 0.892)"><path class="c" d="M357.294,67.3H341.908a1.264,1.264,0,0,1-1.181-1.334V48.6a1.264,1.264,0,0,1,1.181-1.334h15.387a1.264,1.264,0,0,1,1.181,1.334V65.971A1.264,1.264,0,0,1,357.294,67.3Z" transform="translate(-340.727 -47.262)"/><path class="c" d="M357.3,47.263H341.909a1.264,1.264,0,0,0-1.181,1.333V65.972a1.264,1.264,0,0,0,1.181,1.334H357.3a1.264,1.264,0,0,0,1.181-1.334V48.6A1.264,1.264,0,0,0,357.3,47.263Z" transform="translate(-340.728 -47.263)"/></g><path class="d" d="M357.333,47.263h-3.459c0,.035,0,.07,0,.105V64.743a1.264,1.264,0,0,1-1.181,1.334H340.77a1.466,1.466,0,0,0,.087.406h0a1.383,1.383,0,0,0,.141.279l.009.014q.027.039.055.076l.012.015c.022.028.045.055.07.08h0c.025.027.052.052.079.076l.013.011q.033.028.068.054l.024.017.064.042.025.015q.041.023.083.043l.009,0c.031.014.063.026.1.037l.028.008.072.02.034.007.072.012.032,0c.035,0,.07.006.1.006h15.387a1.264,1.264,0,0,0,1.181-1.334V48.6A1.264,1.264,0,0,0,357.333,47.263Z" transform="translate(-303.859 -46.371)"/><path d="M396.886,82.17a.622.622,0,0,1,.66-.608h2.707c1.71,0,3.057.928,3.057,3.422v.091c0,2.494-1.387,3.452-3.165,3.452h-1.509v3.528c0,.411-.444.624-.875.624s-.875-.213-.875-.624V82.17Zm1.751,1.125v3.681h1.508c.875,0,1.414-.563,1.414-1.749v-.182c0-1.186-.539-1.749-1.414-1.749h-1.508Z" transform="translate(-353.897 -76.475)"/><path class="e" d="M7.294,254.1v8.641a1.741,1.741,0,0,0,.9,1.571l3.509,1.761a2.107,2.107,0,0,0,.947.227H59.032a2.291,2.291,0,0,0,2.14-2.416V259.26a4.914,4.914,0,0,0-.568-2.307l-.25-.468a5.764,5.764,0,0,0-3.77-2.99l-7.211-1.619a11.091,11.091,0,0,1-4.081-2.161l-5.226-3.986a10.31,10.31,0,0,0-6.264-2.165H24.212a10.579,10.579,0,0,0-7.9,3.684h0a10.872,10.872,0,0,1-5.6,3.416l-1.134.268A3.174,3.174,0,0,0,7.294,254.1Z" transform="translate(-6.504 -218.66)"/><path class="f" d="M68.408,324.812l-.25-.468a5.764,5.764,0,0,0-3.77-2.99l-2.113-.474a6.318,6.318,0,0,1,1.107,1.5l.25.468a4.914,4.914,0,0,1,.568,2.307v4.628a2.29,2.29,0,0,1-2.139,2.416H16.046l3.465,1.739a2.106,2.106,0,0,0,.947.227H66.837a2.29,2.29,0,0,0,2.139-2.416V327.12A4.914,4.914,0,0,0,68.408,324.812Z" transform="translate(-14.308 -286.52)"/><path class="g" d="M69.283,275.754a1.461,1.461,0,0,1,.683-1.268,13.817,13.817,0,0,0,3.333-2.753,8.237,8.237,0,0,1,6.188-2.887h9.592a8.077,8.077,0,0,1,4.908,1.7l5.226,3.987q.519.4,1.064.734a1.737,1.737,0,0,1,.784,1.482h0a.415.415,0,0,1-.388.438H70.549a1.355,1.355,0,0,1-1.266-1.429Z" transform="translate(-61.778 -240.851)"/><g transform="translate(5.213 41.903)"><ellipse class="h" cx="4.451" cy="5.026" rx="4.451" ry="5.026" transform="translate(36.323)"/><ellipse class="h" cx="4.451" cy="5.026" rx="4.451" ry="5.026"/></g><path class="i" d="M66.46,401.694a5.5,5.5,0,0,0,0-7.109l-6.3,7.109A4.1,4.1,0,0,0,66.46,401.694Z" transform="translate(-53.648 -351.21)"/><ellipse class="a" cx="1.609" cy="1.816" rx="1.609" ry="1.816" transform="translate(8.056 45.113)"/><path class="i" d="M401.8,401.694a5.5,5.5,0,0,0,0-7.109l-6.3,7.109A4.1,4.1,0,0,0,401.8,401.694Z" transform="translate(-352.666 -351.21)"/><ellipse class="a" cx="1.609" cy="1.816" rx="1.609" ry="1.816" transform="translate(44.378 45.113)"/><path d="M115.547,82.293a11.015,11.015,0,0,1,16.909,0,.728.728,0,0,0,1.117,0,.976.976,0,0,0,0-1.262,12.47,12.47,0,0,0-19.143,0,.975.975,0,0,0,0,1.262A.728.728,0,0,0,115.547,82.293Z" transform="translate(-101.829 -72.079)"/><path d="M156.587,123.618a.745.745,0,0,0,.559-.261.976.976,0,0,0,0-1.262,8.232,8.232,0,0,0-12.625,0,.975.975,0,0,0,0,1.262.728.728,0,0,0,1.117,0,6.775,6.775,0,0,1,10.39,0A.744.744,0,0,0,156.587,123.618Z" transform="translate(-128.66 -109.463)"/><path d="M174.135,162.459a.975.975,0,0,0,0,1.262.728.728,0,0,0,1.117,0,2.592,2.592,0,0,1,3.975,0,.728.728,0,0,0,1.117,0,.975.975,0,0,0,0-1.262A4.049,4.049,0,0,0,174.135,162.459Z" transform="translate(-155.067 -146.204)"/><path d="M94.15,268.08c-.342-.212-.679-.445-1-.692L87.922,263.4a8.773,8.773,0,0,0-5.35-1.849H72.98a8.98,8.98,0,0,0-6.745,3.147,13.013,13.013,0,0,1-3.14,2.594,2.365,2.365,0,0,0-1.108,2.059,2.2,2.2,0,0,0,2.056,2.322h3.27a.9.9,0,0,0,0-1.784h-3.27a.51.51,0,0,1-.476-.537.546.546,0,0,1,.256-.476,14.616,14.616,0,0,0,3.527-2.913,7.5,7.5,0,0,1,5.63-2.627h2.147v6.553H72.5a.9.9,0,0,0,0,1.784H94.166a1.262,1.262,0,0,0,1.178-1.33A2.655,2.655,0,0,0,94.15,268.08Zm-17.442,1.81v-6.553h5.864a7.323,7.323,0,0,1,4.465,1.544l5.226,3.987c.363.277.741.538,1.126.777a.774.774,0,0,1,.245.246Z" transform="translate(-55.273 -234.449)"/><path d="M189.372,355.388h-2.44a.9.9,0,0,0,0,1.784h2.44a.9.9,0,0,0,0-1.784Z" transform="translate(-165.98 -316.807)"/><path d="M54.777,77.8l-.25-.468a6.578,6.578,0,0,0-4.292-3.4l-2.04-.458V61.8h5.278a2.112,2.112,0,0,0,1.971-2.226V42.2a2.112,2.112,0,0,0-1.971-2.226H38.087A2.112,2.112,0,0,0,36.116,42.2v6.591a.8.8,0,1,0,1.58,0V42.2a.419.419,0,0,1,.391-.441H53.474a.419.419,0,0,1,.391.441V59.571a.419.419,0,0,1-.391.441H38.087a.419.419,0,0,1-.391-.441V54.587a.8.8,0,1,0-1.58,0v4.984A2.112,2.112,0,0,0,38.087,61.8h5.986V72.546l-1.049-.235a10.643,10.643,0,0,1-3.793-2.025L34.005,66.3A11,11,0,0,0,27.3,63.981H17.708a11.255,11.255,0,0,0-8.455,3.944A10.082,10.082,0,0,1,4.044,71.1l-1.134.268A4.065,4.065,0,0,0,0,75.414v8.64A2.647,2.647,0,0,0,1.373,86.44L4.52,88.02a6.162,6.162,0,0,0,1.439,3.065,4.938,4.938,0,0,0,3.706,1.731,4.938,4.938,0,0,0,3.706-1.731,6.089,6.089,0,0,0,1.336-2.579H40.945a6.089,6.089,0,0,0,1.336,2.579,4.829,4.829,0,0,0,7.412,0,6.089,6.089,0,0,0,1.336-2.579h1.5a3.14,3.14,0,0,0,2.93-3.308V80.57A5.9,5.9,0,0,0,54.777,77.8ZM45.653,61.8h.962v11.32l-.962-.216Zm-33.4,28.027a3.373,3.373,0,0,1-5.178,0,4.545,4.545,0,0,1-.741-4.64l.015-.037c.019-.045.039-.09.059-.135l.029-.063c.018-.039.037-.077.057-.115l.041-.078c.018-.034.036-.067.055-.1s.035-.06.053-.089.035-.059.054-.087.043-.065.065-.1.034-.051.052-.075.053-.072.08-.107l.046-.061q.06-.076.124-.149l.011-.013.025-.027c.036-.04.073-.08.11-.118l.03-.029c.037-.037.074-.074.112-.109l.011-.01a3.347,3.347,0,0,1,4.608,0l0,0c.041.038.081.077.121.117l.022.021q.069.07.135.145c.048.054.094.109.138.165.02.025.038.05.057.075s.046.061.069.092.049.071.073.107l.04.06q.043.068.084.137l.014.024A4.55,4.55,0,0,1,12.253,89.823Zm36.323,0a3.373,3.373,0,0,1-5.178,0,4.55,4.55,0,0,1-.475-5.187l.013-.023q.041-.069.084-.137l.039-.06c.024-.036.048-.072.073-.107s.045-.061.068-.092.038-.051.058-.076c.045-.056.091-.111.138-.165a3.373,3.373,0,0,1,5.178,0c.048.054.094.109.138.165.02.025.038.05.057.075s.046.061.069.092.049.071.073.107l.04.06c.029.045.057.091.084.137l.014.023A4.551,4.551,0,0,1,48.576,89.823Zm5.3-4.626a1.446,1.446,0,0,1-1.35,1.524h-1.3a6.313,6.313,0,0,0-1.163-3.541l-.015-.021c-.045-.062-.092-.123-.139-.183l-.036-.047c-.05-.062-.1-.124-.155-.184l-.026-.031a5.094,5.094,0,0,0-2.426-1.557,4.727,4.727,0,0,0-2.311-.063,5.053,5.053,0,0,0-2.676,1.62l-.026.031c-.053.061-.105.122-.156.185l-.035.045c-.048.061-.1.122-.14.185l-.013.019a6.314,6.314,0,0,0-1.164,3.542H14.9a6.313,6.313,0,0,0-1.167-3.546l-.01-.014c-.048-.066-.1-.13-.148-.194l-.027-.036q-.089-.11-.182-.217a5.438,5.438,0,0,0-.821-.757,4.816,4.816,0,0,0-2.885-.974,4.938,4.938,0,0,0-3.706,1.731c-.058.066-.115.134-.17.2l-.048.061q-.058.075-.115.151l-.049.068q-.058.082-.113.165l-.034.052q-.149.23-.276.473l-.007.014q-.062.119-.119.242l0,.007a6.429,6.429,0,0,0-.546,1.9L2.015,84.81a.838.838,0,0,1-.435-.755v-8.64a2.311,2.311,0,0,1,1.654-2.3l1.134-.268a11.614,11.614,0,0,0,6-3.657,9.771,9.771,0,0,1,7.34-3.424H27.3a9.548,9.548,0,0,1,5.822,2.012l5.226,3.986a12.02,12.02,0,0,0,4.37,2.3l7.211,1.619a4.976,4.976,0,0,1,3.247,2.576l.25.468h0a3.933,3.933,0,0,1,.455,1.847V85.2Z" transform="translate(0 -39.97)"/><path d="M69.479,401.5a2.254,2.254,0,0,0-1.7.793h0a2.962,2.962,0,0,0,0,3.83,2.21,2.21,0,0,0,3.392,0,2.966,2.966,0,0,0,0-3.83A2.254,2.254,0,0,0,69.479,401.5Zm.579,3.362a.754.754,0,0,1-1.157,0,1.01,1.01,0,0,1,0-1.307h0a.754.754,0,0,1,1.157,0A1.012,1.012,0,0,1,70.057,404.862Z" transform="translate(-59.814 -357.279)"/><path d="M404.828,401.5a2.254,2.254,0,0,0-1.7.793,2.966,2.966,0,0,0,0,3.83,2.21,2.21,0,0,0,3.392,0,2.962,2.962,0,0,0,0-3.83A2.254,2.254,0,0,0,404.828,401.5Zm.579,3.362a.754.754,0,0,1-1.157,0,1.012,1.012,0,0,1,0-1.307.754.754,0,0,1,1.158,0,1.011,1.011,0,0,1,0,1.307Z" transform="translate(-358.84 -357.279)"/></svg>