<svg xmlns="http://www.w3.org/2000/svg" width="45.326" height="66.462" viewBox="0 0 45.326 66.462"><defs><style>.a{fill:#ffe7cf;}.b{fill:#f4d3a6;}.c{fill:#ededed;}.d{fill:#2d5872;}.e{fill:#1d4559;}.f{fill:#ff6d3a;}.g{fill:#282c3a;}.h{fill:#ffbf14;}.i{fill:#eaa200;}</style></defs><path class="a" d="M189.261,272.852,194.783,267l-2.192-.46a2.938,2.938,0,0,1-1.819-2.845v-5.431H180.518v5.431a2.938,2.938,0,0,1-1.819,2.845l-2.192.46,5.521,5.856A4.852,4.852,0,0,0,189.261,272.852Z" transform="translate(-162.982 -224.736)"/><path class="b" d="M259.666,258.262v7.714a2.938,2.938,0,0,0,1.819,2.845l4.324.906L268.382,267l-2.192-.46a2.938,2.938,0,0,1-1.819-2.845v-5.431Z" transform="translate(-236.582 -224.737)"/><path class="c" d="M249.97,466.718Z" transform="translate(-228 -406.134)"/><path class="d" d="M103.341,318.4l-7.794-1.635a.952.952,0,0,0-.814.214l-6.58,5.554-6.58-5.554a.952.952,0,0,0-.814-.214L72.965,318.4c-3.92,1.3-6.612,5.367-6.612,9.982v10.549a2.073,2.073,0,0,0,1.936,2.186h39.728a2.073,2.073,0,0,0,1.936-2.186V328.38C109.953,323.765,107.262,319.7,103.341,318.4Z" transform="translate(-65.491 -275.627)"/><g transform="translate(13.032 41.116)"><path class="e" d="M295.243,318.4l-7.794-1.635a.952.952,0,0,0-.814.214l-3.456,2.917,7.417,1.556c3.92,1.3,6.612,2.526,6.612,7.141v12.524h2.711a2.073,2.073,0,0,0,1.936-2.186V328.38C301.856,323.765,299.164,319.7,295.243,318.4Z" transform="translate(-270.425 -316.743)"/><path class="e" d="M172.219,317.232l4.265,6.74a1.1,1.1,0,0,0,1.421.452l3.945-1.892-6.58-5.554a.952.952,0,0,0-.814-.214Z" transform="translate(-172.219 -316.743)"/><path class="e" d="M265.63,317.232l-4.265,6.74a1.1,1.1,0,0,1-1.421.452L256,322.531l6.58-5.554a.952.952,0,0,1,.814-.214Z" transform="translate(-246.368 -316.743)"/></g><path class="d" d="M140.717,7.5c-8.269,0-14.973,6.46-14.973,10.111s6.7,6.259,14.973,6.259,14.973-2.609,14.973-6.259S148.986,7.5,140.717,7.5Z" transform="translate(-118.054 -6.528)"/><path class="e" d="M237.818,7.5a16.159,16.159,0,0,0-2.361.175c7.147,1.054,12.612,6.64,12.612,9.936S242.6,23.355,235.457,23.8c.769.048,1.558.073,2.361.073,8.269,0,14.973-2.609,14.973-6.259S246.088,7.5,237.818,7.5Z" transform="translate(-215.156 -6.528)"/><path class="a" d="M170.307,81.693h-.683V78.62a11.2,11.2,0,0,0-3.164-8.018c-1.609-1.565-12.108-1.565-13.717,0a11.2,11.2,0,0,0-3.164,8.018v3.072h-.683a1.942,1.942,0,0,0-1.814,2.049v2.27a1.942,1.942,0,0,0,1.814,2.049h.686a11.151,11.151,0,0,0,3.162,7.778,9.409,9.409,0,0,0,13.717,0,11.151,11.151,0,0,0,3.162-7.778h.686a1.942,1.942,0,0,0,1.814-2.049v-2.27A1.942,1.942,0,0,0,170.307,81.693Z" transform="translate(-136.938 -60.417)"/><path class="b" d="M248.888,81.694h-.683V78.622a11.2,11.2,0,0,0-3.164-8.018c-1.013-.985-5.549-1.35-9.173-1.094,2.132.15,3.948.515,4.545,1.094a11.2,11.2,0,0,1,3.164,8.018v2.166l0,7.273a11.151,11.151,0,0,1-3.162,7.778,10.329,10.329,0,0,1-4.545,2.655,9.474,9.474,0,0,0,2.314.313,9.879,9.879,0,0,0,6.859-2.968,11.151,11.151,0,0,0,3.162-7.778h.686a1.942,1.942,0,0,0,1.814-2.049v-2.27A1.942,1.942,0,0,0,248.888,81.694Z" transform="translate(-215.519 -60.418)"/><path class="f" d="M155.585,89.383v7.053A3.566,3.566,0,0,1,158.1,97.5a.323.323,0,0,0,.554-.264V92.011H175.6v5.223a.323.323,0,0,0,.554.264,3.565,3.565,0,0,1,2.518-1.062V89.383C178.671,85.015,155.585,85.015,155.585,89.383Z" transform="translate(-144.465 -74.93)"/><path class="d" d="M167.128,122.154c-6.375,0-11.543-2.234-11.543-4.991h23.086C178.671,119.919,173.5,122.154,167.128,122.154Z" transform="translate(-144.465 -101.954)"/><path class="e" d="M155.585,66.126v3.465h23.086V66.162a2.006,2.006,0,0,0-1.356-1.971,41.368,41.368,0,0,0-10.727-1.7,33.615,33.615,0,0,0-9.688,1.673A2.013,2.013,0,0,0,155.585,66.126Z" transform="translate(-144.465 -54.382)"/><g transform="translate(19.561 46.904)"><path class="g" d="M232.116,361.332l-3.1,1.488,1.813,2.381H233.4l1.813-2.381Z" transform="translate(-229.014 -361.332)"/><path class="g" d="M233.4,391.134h-2.577l-1.813,14.716h6.2Z" transform="translate(-229.014 -387.265)"/></g><g transform="translate(10.345 56.618)"><path class="e" d="M319.233,440.129h-4.542a.585.585,0,0,1-.546-.617V436.78a.585.585,0,0,1,.546-.617h4.542a.585.585,0,0,1,.546.617v2.732A.585.585,0,0,1,319.233,440.129Z" transform="translate(-295.143 -436.163)"/><path class="e" d="M153.928,440.129h-4.542a.585.585,0,0,1-.546-.617V436.78a.585.585,0,0,1,.546-.617h4.542a.585.585,0,0,1,.546.617v2.732A.585.585,0,0,1,153.928,440.129Z" transform="translate(-148.84 -436.163)"/></g><path class="h" d="M74.635,342.9a1.831,1.831,0,0,0,2.785-.337l.938-1.314a2.439,2.439,0,0,0-.3-3.145l-.673-.613a10.089,10.089,0,0,0-3.657,4.586Z" transform="translate(-72.02 -293.68)"/><path class="i" d="M399.254,342.075a10.089,10.089,0,0,0-3.657-4.586l-.673.613a2.439,2.439,0,0,0-.3,3.145l.939,1.314a1.831,1.831,0,0,0,2.785.337Z" transform="translate(-355.639 -293.68)"/><path d="M102.721,46.867l-.02-.038q-.074-.137-.152-.272l-.086-.148q-.053-.089-.108-.178-.071-.115-.144-.227l-.043-.067-.032-.046q-.088-.132-.18-.261l-.064-.09q-.091-.126-.186-.248l-.079-.1c-.052-.067-.106-.132-.16-.2-.04-.049-.08-.1-.121-.146s-.062-.071-.093-.106a9.842,9.842,0,0,0-4.309-2.9.765.765,0,0,0-.086-.023l-7.794-1.635h0l-.041-.006a1.711,1.711,0,0,0-1.072.154,2.451,2.451,0,0,1-.45-1.37V37.362a12.742,12.742,0,0,0,1.433-1.2,11.99,11.99,0,0,0,3.41-7.545A2.889,2.889,0,0,0,94.9,25.594v-2.27a3.174,3.174,0,0,0-.978-2.334V15.771c2.818-1.568,3.43-3.4,3.43-4.687,0-2.214-1.826-4.984-4.765-7.231a17.829,17.829,0,0,0-22.142,0C67.5,6.1,65.677,8.871,65.677,11.085c0,1.29.612,3.118,3.43,4.687V20.99a3.175,3.175,0,0,0-.978,2.334v2.27a2.889,2.889,0,0,0,2.551,3.019,11.989,11.989,0,0,0,3.41,7.545,12.744,12.744,0,0,0,1.433,1.2v1.593a2.451,2.451,0,0,1-.45,1.37,1.708,1.708,0,0,0-1.113-.147h0l-7.794,1.635a.766.766,0,0,0-.086.023,9.842,9.842,0,0,0-4.307,2.9l-.1.109c-.04.047-.079.1-.119.144-.054.066-.109.132-.162.2l-.077.1q-.095.123-.187.249l-.064.09q-.092.129-.18.261l-.032.046L60.815,46q-.073.113-.144.227-.055.089-.108.178l-.086.148q-.078.135-.152.272l-.02.038a12.4,12.4,0,0,0-1.454,5.886V53.94a.869.869,0,1,0,1.725,0V52.753a10.559,10.559,0,0,1,.365-2.763,2.626,2.626,0,0,0,1.764.7,2.547,2.547,0,0,0,.309-.019,2.754,2.754,0,0,0,1.91-1.177l.938-1.314a3.484,3.484,0,0,0,.614-2.358,3.4,3.4,0,0,0-.707-1.8,7.873,7.873,0,0,1,.76-.3L71.5,42.675l3.946,6.236a1.97,1.97,0,0,0,1.655.968,1.855,1.855,0,0,0,.8-.186l.263-.126,1.148,1.508L77.66,64.514H66.823v-7.9a.869.869,0,1,0-1.725,0v7.9h-3.45A1.151,1.151,0,0,1,60.575,63.3V58.471a.869.869,0,1,0-1.725,0V63.3a3,3,0,0,0,2.8,3.16h39.728a3,3,0,0,0,2.8-3.16V52.753A12.4,12.4,0,0,0,102.721,46.867Zm-38.2.089-.938,1.314a1.084,1.084,0,0,1-.751.463,1.025,1.025,0,0,1-.821-.273l-.36-.328q.116-.233.243-.458l0-.005c.072-.128.149-.253.226-.377l.071-.112q.1-.16.213-.315l.056-.08q.124-.171.255-.335l.077-.1c.086-.106.174-.21.264-.31l.023-.026a8.65,8.65,0,0,1,1.082-1.011l.189.172a1.306,1.306,0,0,1,.41.848A1.372,1.372,0,0,1,64.517,46.956ZM98.676,45.18l.189-.172a8.643,8.643,0,0,1,1.082,1.011l.023.026c.09.1.178.2.264.31l.077.1q.131.164.255.335l.056.08q.109.155.213.315l.071.112c.078.124.154.249.226.377l0,.005q.127.224.243.458l-.36.328a1.026,1.026,0,0,1-.821.273,1.083,1.083,0,0,1-.751-.463l-.938-1.314A1.378,1.378,0,0,1,98.676,45.18ZM88.609,42.13h0a.166.166,0,0,1,.14-.037l.9.19-3.478,5.5a.3.3,0,0,1-.382.121l-2.564-1.23h0Zm-7.1,3.558-5.025-4.242a4.54,4.54,0,0,0,.761-2.491v-.57a10.145,10.145,0,0,0,4.254.977h.019a10.149,10.149,0,0,0,4.254-.977v.57a4.54,4.54,0,0,0,.761,2.491Zm1.679,3.079L82.406,49.8H80.62l-.786-1.031,1.679-.805ZM69.107,13.551A3.269,3.269,0,0,1,67.4,11.085c0-1.756,2.077-4.143,4.007-5.618a16.266,16.266,0,0,1,20.208,0c1.93,1.475,4.007,3.862,4.007,5.618a3.27,3.27,0,0,1-1.705,2.467V11.78a2.965,2.965,0,0,0-2-2.915,42.047,42.047,0,0,0-10.94-1.727h-.011a34.123,34.123,0,0,0-9.911,1.71,2.988,2.988,0,0,0-1.943,2.9v1.807ZM89.88,16.183h1.909l0,.006-.044.053c-.031.037-.062.073-.1.11l-.066.069c-.03.031-.06.061-.092.092s-.061.057-.093.086l-.081.072q-.06.052-.124.1l-.063.05c-.052.041-.106.081-.162.122l-.036.026a8.187,8.187,0,0,1-1.274.728c-.01,0-.019.012-.029.017a19.684,19.684,0,0,1-8.112,1.51,19.684,19.684,0,0,1-8.112-1.51c-.01-.005-.019-.012-.029-.017A8.187,8.187,0,0,1,72.1,16.97l-.036-.026c-.056-.04-.11-.081-.162-.122l-.063-.05q-.064-.051-.124-.1l-.081-.072c-.032-.029-.063-.057-.093-.086s-.062-.061-.092-.092l-.066-.069c-.034-.037-.065-.074-.1-.11l-.044-.053,0-.006H85.715a.981.981,0,0,0,0-1.948H70.832V11.744a1.053,1.053,0,0,1,.685-1.021,32.568,32.568,0,0,1,9.444-1.637h.01a40.478,40.478,0,0,1,10.514,1.667,1.045,1.045,0,0,1,.707,1.027v2.454H89.88a.981.981,0,0,0,0,1.948Zm2.313,2.178v2.263a4.416,4.416,0,0,0-1.347.507v-1.9A8.53,8.53,0,0,0,92.193,18.361Zm-20.013.872v1.9a4.415,4.415,0,0,0-1.347-.507V18.361A8.533,8.533,0,0,0,72.18,19.234Zm3.037,15.449a10.117,10.117,0,0,1-2.862-7.061.92.92,0,0,0-.862-.953h-.686a1.02,1.02,0,0,1-.952-1.075v-2.27a1.127,1.127,0,0,1,.35-.831,2.876,2.876,0,0,1,1.353.479l.014.01a2.028,2.028,0,0,1,.2.164l.022.021c.031.03.061.061.09.094s.052.055.08.081l.024.022q.031.027.063.052l.025.019c.029.021.059.041.089.059h0c.031.018.063.035.095.05l.027.012c.024.011.049.021.074.029l.028.01c.033.011.065.02.1.027h0c.034.008.068.013.1.017l.028,0q.039,0,.079,0h.029c.034,0,.068,0,.1-.006h0a1.038,1.038,0,0,0,.1-.018l.029-.007.077-.022.03-.01c.034-.012.068-.025.1-.041A1.353,1.353,0,0,0,73.9,22.3V19.975a23.455,23.455,0,0,0,7.608,1.2,23.455,23.455,0,0,0,7.608-1.2V22.3a1.353,1.353,0,0,0,.732,1.24c.034.016.068.029.1.041l.029.01c.026.008.053.016.079.022l.028.007a1.042,1.042,0,0,0,.21.023h.027c.027,0,.054,0,.081,0l.026,0a1.055,1.055,0,0,0,.2-.045l.027-.009c.025-.009.05-.019.074-.03l.027-.012c.032-.015.064-.031.095-.05h0c.03-.018.06-.038.089-.059l.026-.019q.032-.025.063-.052l.025-.022c.027-.026.054-.052.08-.081s.059-.063.09-.093l.024-.023c.028-.027.057-.053.086-.077l.008-.007c.032-.026.064-.051.1-.075l.026-.019c.029-.021.059-.041.088-.06l.013-.008q.051-.032.1-.06l.026-.014.092-.048.013-.006c.035-.017.071-.033.106-.048l.019-.008.1-.04.006,0,.111-.039h0a3.252,3.252,0,0,1,.667-.139,1.127,1.127,0,0,1,.35.831v2.27a1.02,1.02,0,0,1-.952,1.075h-.686a.92.92,0,0,0-.862.953,10.117,10.117,0,0,1-2.862,7.061,8.621,8.621,0,0,1-12.592,0ZM79.795,46.67h0L77.231,47.9a.3.3,0,0,1-.382-.121l-3.478-5.5.9-.19a.165.165,0,0,1,.14.037h0l5.378,4.54ZM79.4,64.514l1.573-12.768h1.076l1.573,12.768ZM102.451,63.3a1.151,1.151,0,0,1-1.074,1.212H97.927v-7.9a.869.869,0,1,0-1.725,0v7.9H85.366l-1.656-13.44,1.148-1.508.263.126a1.854,1.854,0,0,0,.8.186,1.969,1.969,0,0,0,1.655-.968l3.946-6.236L96.5,43.719a7.876,7.876,0,0,1,.761.3,3.538,3.538,0,0,0-.094,4.155l.939,1.314a2.754,2.754,0,0,0,1.91,1.177,2.549,2.549,0,0,0,.309.019,2.627,2.627,0,0,0,1.763-.7,10.559,10.559,0,0,1,.365,2.763V63.3h0Z" transform="translate(-58.85)"/><path d="M312.592,428.66h-4.542a1.51,1.51,0,0,0-1.409,1.591v2.732a1.51,1.51,0,0,0,1.409,1.591h4.542A1.51,1.51,0,0,0,314,432.983v-2.732A1.51,1.51,0,0,0,312.592,428.66Zm-.316,3.966h-3.91v-2.019h3.91v2.019Z" transform="translate(-278.158 -373.016)"/><path d="M147.288,434.573a1.51,1.51,0,0,0,1.409-1.591V430.25a1.51,1.51,0,0,0-1.409-1.591h-4.542a1.51,1.51,0,0,0-1.409,1.591v2.732a1.51,1.51,0,0,0,1.409,1.591Zm-4.226-3.966h3.91v2.019h-3.91Z" transform="translate(-131.856 -373.015)"/></svg>