<svg xmlns="http://www.w3.org/2000/svg" width="105.001" height="105.034" viewBox="0 0 105.001 105.034"><defs><style>.a{fill:#6d6d6d;}.b{fill:#5fc68f;}.c{fill:#7adbae;}.d{fill:#b3cec9;}.e{fill:#cae0dd;}.f{fill:#f9cfac;}.g{fill:#ffe4cc;}.h{fill:#797a7a;}</style></defs><g transform="translate(-0.081 0)"><path class="a" d="M239.807,13.819v4.342H228.491V13.819a5.658,5.658,0,0,1,11.316,0Z" transform="translate(-181.568 -6.487)"/><path class="b" d="M142.16,395.63a10.286,10.286,0,0,1-10.287,10.287H73.245a10.288,10.288,0,0,1-4.18-19.688l19.349-5.658H116.7l19.349,5.658A10.29,10.29,0,0,1,142.16,395.63Z" transform="translate(-49.978 -302.523)"/><path class="c" d="M142.4,394.406c0,3.308-7.371,6.589-10.213,6.589a4.7,4.7,0,0,1-4.7-4.7v-3.2l-17.021,1.26a8.624,8.624,0,0,1-5.076-.824,8.651,8.651,0,0,0-8.01-.148,8.624,8.624,0,0,1-5.664.719L78.26,393.086v3.2a4.7,4.7,0,0,1-4.7,4.7c-5.264,0-9.6-1.491-10.213-6.589a10.286,10.286,0,0,1,6.033-8.177l19.349-5.658h28.289l19.349,5.658a10.286,10.286,0,0,1,6.033,8.177Z" transform="translate(-50.287 -302.523)"/><g transform="translate(33.456 38.428)"><path class="d" d="M201.072,191.5c-3.007,16.09-4.981,10.39-4.981,35.5H167.8c0-25.228-1.941-19.235-4.981-35.5l7.867-3.575c3.059-.693,3.865-.523,17.889-.523a21.219,21.219,0,0,1,4.647.515c8.632,3.874,7.742,3.446,7.848,3.583Z" transform="translate(-162.821 -187.381)"/><path class="d" d="M184.59,306.307l-.539-8.486C184.316,299.941,184.492,302.573,184.59,306.307Z" transform="translate(-179.697 -275.172)"/><path class="d" d="M326.02,297.821l-.539,8.486C325.579,302.573,325.756,299.942,326.02,297.821Z" transform="translate(-292.123 -275.172)"/></g><path class="e" d="M213.087,190.928c-.8,4.279-1.827,7.624-2.618,10.5-1.317,4.745-1.4,7.321-1.58,14.123a7.472,7.472,0,0,1-7.47,7.278h-6.563a7.472,7.472,0,0,1-7.47-7.278c-.195-7.475-.364-9.746-1.58-14.123-.866-3.15-1.817-6.214-2.618-10.5l6.748-3.066c2.609-.591,3.708-.448,12.43-.448a18.2,18.2,0,0,1,3.986.442C213.761,191.178,213,190.811,213.087,190.928Z" transform="translate(-145.557 -148.966)"/><path class="e" d="M201.864,290.856l-.463-8.725C201.628,283.95,201.779,287.652,201.864,290.856Z" transform="translate(-160.033 -224.271)"/><path class="e" d="M308.968,282.132l-.463,8.724C308.589,287.653,308.741,283.951,308.968,282.132Z" transform="translate(-245.172 -224.272)"/><path class="f" d="M290.026,214.3a6.29,6.29,0,0,1-6.284,6.284H258.909a2.829,2.829,0,0,1-2.828-2.83V200.78a4.7,4.7,0,0,1,1.641.158c4.922,1.425,4.922,11.158,4.922,11.158H277.1c-1.893-2.409-10.847-13.816-11.066-14.1a4.989,4.989,0,0,1-1.335-4.661v0a5,5,0,0,1,2.662-3.357,21.212,21.212,0,0,1,7.775,3.488C288.868,211.014,290.026,210.844,290.026,214.3Z" transform="translate(-203.5 -151.019)"/><path class="f" d="M124.49,200.812v16.972a2.829,2.829,0,0,1-2.828,2.83H96.829a6.293,6.293,0,0,1-4.908-10.209c14.084-17.612,13.417-16.791,13.49-16.845a21.284,21.284,0,0,1,7.82-3.54,5,5,0,0,1,1.308,8.012c-.218.278-9.182,11.7-11.066,14.1h14.454s0-9.733,4.922-11.158a4.7,4.7,0,0,1,1.641-.158Z" transform="translate(-71.909 -151.051)"/><path class="g" d="M296.33,213.481a6.086,6.086,0,0,1-.449,1.634,6.228,6.228,0,0,1-4.139,1.563H266.909a2.829,2.829,0,0,1-2.828-2.83v-12.91C269,202.364,269,212.1,269,212.1h14.454l-1.3-1.649H285.1a6.511,6.511,0,0,0-1.392-4.03c-4.466-5.686-2.292-2.918-9.674-12.321a4.972,4.972,0,0,1-1.335-2.408,4.945,4.945,0,0,1,.6-1.479c.135-.084.275-.16.416-.23a20.173,20.173,0,0,1,7.848,3.583l13.443,16.81A6.253,6.253,0,0,1,296.33,213.481Z" transform="translate(-209.859 -151.019)"/><path class="g" d="M123.08,200.97v12.91a2.829,2.829,0,0,1-2.828,2.83H95.419a6.228,6.228,0,0,1-4.139-1.563,6.085,6.085,0,0,1-.449-1.634,6.251,6.251,0,0,1,1.321-3.107c14.084-17.612,13.417-16.791,13.49-16.845a21.285,21.285,0,0,1,7.82-3.54c.135.068.269.141.4.224a4.983,4.983,0,0,1,.6,1.477c-.3,1.328.388.218-11.009,14.729a6.522,6.522,0,0,0-1.392,4.03H105l-1.3,1.649h14.454S118.158,202.4,123.08,200.97Z" transform="translate(-72.139 -151.051)"/><path class="f" d="M223.521,59.828c0,5.856-1.9,9.468-3.556,13.224-2.8,6.355-12.721,6.354-15.516,0l-1.456-3.3a23.128,23.128,0,0,1-1.981-11.421c.791-4.913,5.44-8.786,11.2-8.786C218.416,49.541,223.521,54.106,223.521,59.828Z" transform="translate(-159.625 -39.381)"/><path class="g" d="M223.882,58.291c-.43,4.453-1.838,7.2-3.437,10.83-2.8,6.355-12.721,6.354-15.516,0-1.667-3.782-2.994-6.343-3.437-10.828,1.324-8.22,12.542-11.822,19.2-5.773A9.946,9.946,0,0,1,223.882,58.291Z" transform="translate(-160.105 -39.347)"/><path class="a" d="M223.507,59.051c-11.218-4.657-11.349,8.1-22.573,1.833-.014-.351-.023-.7-.023-1.056,0-5.716,5.1-10.287,11.314-10.287C218.1,49.541,223.065,53.653,223.507,59.051Z" transform="translate(-159.644 -39.381)"/><path class="f" d="M159.875,455.977c-6.264,3.132-6.867,3.2-7.766,4.61a4.563,4.563,0,0,0-.72,2.461h-5.658V452.441C162.194,456.555,151.11,453.785,159.875,455.977Z" transform="translate(-115.78 -359.654)"/><path class="f" d="M212.924,452.441v10.607h-39.6a4.586,4.586,0,0,1,2.121-3.862c.272-.174-.135.041,6.366-3.209,2.871-1.915,3.831-2.83,5.933-2.83a5.423,5.423,0,0,1,5.2,3.708l.176.535Z" transform="translate(-137.712 -359.654)"/><path class="g" d="M155.423,454.863a8.055,8.055,0,0,0-2.9,1.835,8.527,8.527,0,0,1-6.788,3.011v-7.268Z" transform="translate(-115.78 -359.654)"/><path class="g" d="M221.143,452.441v7.268H184.455a.843.843,0,0,1-.794-.523,4.214,4.214,0,0,1,.41-.232c7.155-3.578,5.208-2.48,8.806-4.879a5.51,5.51,0,0,1,8.287,2.779l.176.535Z" transform="translate(-145.931 -359.654)"/><path class="h" d="M228.343,53.468c-3.372,2.841-13.506,3.258-18.332.71C214.259,48.342,223.549,47.959,228.343,53.468Z" transform="translate(-166.878 -39.395)"/><path class="h" d="M239.807,14.038a20.842,20.842,0,0,1-11.316-.127,5.661,5.661,0,1,1,11.316.127Z" transform="translate(-181.568 -6.489)"/><path d="M103.441,101.753H90.073a11.932,11.932,0,0,0-3.331-19.579c-.156-.069,1.052.292-18.374-5.388,0-2.137.022-3.993.051-5.614H80.243A7.935,7.935,0,0,0,86.432,58.3l-3.119-3.9a1.641,1.641,0,0,0-2.563,2.05l3.12,3.9a4.65,4.65,0,0,1-3.627,7.542c-27.056,0-25.175.147-25.67-.344s-.35.415-.35-15.9c2.466,1.265,3.276,6.67,3.281,9.4a1.641,1.641,0,0,0,1.641,1.641H73.6a1.642,1.642,0,0,0,1.29-2.654L67,49.981a1.641,1.641,0,1,0-2.581,2.026l2.44,3.108a41.075,41.075,0,0,0-.927,4.289H60.714c-.432-5.586-2.608-11.625-8.132-11.318-5.524-.308-7.7,5.718-8.132,11.318H39.234a41.082,41.082,0,0,0-.927-4.289l2.44-3.108a1.641,1.641,0,1,0-2.581-2.026L30.275,60.031a1.642,1.642,0,0,0,1.29,2.654H46.019a1.642,1.642,0,0,0,1.641-1.639c.005-2.751.82-8.14,3.281-9.4,0,16.3.146,15.4-.341,15.894-.508.5,1.5.353-25.679.353a4.65,4.65,0,0,1-3.626-7.543L34.6,43.71a19.515,19.515,0,0,1,11.41-3.655c13.344,0,18.221-.839,24.486,3.566l1.87,2.341a1.641,1.641,0,0,0,2.563-2.048c-2.139-2.677-2.079-2.642-2.337-2.828A22.884,22.884,0,0,0,60.207,36.8c1.359-1.485,1.72-2.693,3.091-5.8a26.282,26.282,0,0,0,2.239-10.579,11.647,11.647,0,0,0-5.657-9.857c0-3.381.374-5.9-2.138-8.423A7.309,7.309,0,0,0,45.282,7.3v3.257a11.648,11.648,0,0,0-5.657,9.857A26.173,26.173,0,0,0,41.865,31c1.481,3.36,1.8,4.389,3.093,5.8a22.779,22.779,0,0,0-12.479,4.394c-.267.2.59-.825-13.747,17.1A7.932,7.932,0,0,0,24.92,71.171H36.744c.03,1.622.047,3.478.051,5.614C17.34,82.475,18.577,82.1,18.422,82.173a11.929,11.929,0,0,0-3.324,19.58H1.722a1.641,1.641,0,0,0,0,3.281h101.72a1.641,1.641,0,0,0,0-3.281Zm-34-43.344.782,1h-.969C69.313,59.064,69.376,58.733,69.442,58.409Zm-33.721,0c.066.325.129.655.188,1h-.969ZM48.564,7.3a4.027,4.027,0,0,1,6.858-2.845C56.8,5.838,56.6,7.254,56.6,9.072a14.086,14.086,0,0,0-8.035,0V7.3Zm-2.881,7.054c4.9-4.453,13.3-2.921,15.884,2.851-4.459-.917-7.271.894-9.607,2.4-2.7,1.744-4.7,3.031-9.052.865A8.149,8.149,0,0,1,45.683,14.353Zm-2.462,9.818c4.383,1.588,7.1.4,10.518-1.809,2.416-1.558,4.528-2.917,8.512-1.579-.088,5.345-1.9,8.755-3.413,12.194-2.219,5.047-10.295,5.042-12.513,0-1.518-3.444-2.536-5.42-3.1-8.8ZM39.395,96.8c-2,1-4.372,1.83-5.207,4.915h-2.6V94.854Zm-1.645,4.915c.575-.853.608-.728,7.08-3.964.035-.018.114-.062.169-.1,3.079-2.053,3.511-2.557,5.092-2.557a3.772,3.772,0,0,1,3.585,2.585l.178.535A1.641,1.641,0,0,0,55.808,99.3L73.57,94.854v6.866H37.749ZM14.621,93.074a8.648,8.648,0,0,1,5.037-7.858l19.014-5.56H56.494a1.641,1.641,0,1,0,0-3.281H40.075c-.006-1.96-.022-3.681-.05-5.2h9.728a4.447,4.447,0,0,0,2.827-1.009,4.448,4.448,0,0,0,2.829,1.009h9.728c-.041,2.253-.051,4.6-.051,6.852a1.641,1.641,0,0,0,.282.912c.477.7-.738.176,20.137,6.28a8.647,8.647,0,0,1-3.609,16.5H76.851V94.034l1.586-.4a1.641,1.641,0,0,0-.8-3.183l-21.218,5.3a7.159,7.159,0,0,0-10.388-2.735l-2.246,1.5L27.521,90.454a1.641,1.641,0,0,0-.8,3.183l1.586.4v7.686H23.267a8.656,8.656,0,0,1-8.646-8.646Z" transform="translate(0 0)"/><path d="M372.66,239.684a1.643,1.643,0,0,0,1.278-2.668l-.259-.322a1.641,1.641,0,1,0-2.559,2.054A1.842,1.842,0,0,0,372.66,239.684Z" transform="translate(-294.66 -187.665)"/></g></svg>