<svg xmlns="http://www.w3.org/2000/svg" width="87.019" height="87.016" viewBox="0 0 87.019 87.016"><defs><style>.a{fill:#802f34;}.b{fill:#424242;}.c{fill:#9e9e9e;}.d{fill:#4e342e;}.e{fill:#795548;}.f{fill:#cc4b4c;}.g{fill:#c52828;}.h{fill:#f44335;}.i{fill:#ad1457;}.j{fill:#e91e63;}.k{fill:#f5f5f5;}</style></defs><g transform="translate(-0.001 -0.02)"><path class="a" d="M90.636,26.537A28.544,28.544,0,0,0,74.668,10.57,29.008,29.008,0,0,0,63.646,8.554a29.94,29.94,0,0,0-18.084,6.4,29.689,29.689,0,0,0-8.019-1.2,29.01,29.01,0,0,0-11.022,2.015A28.463,28.463,0,0,0,10.555,31.714,29.125,29.125,0,0,0,8.538,42.75,29.752,29.752,0,0,0,10.83,53.829a30.288,30.288,0,0,0,6.57,9.789,29.971,29.971,0,0,0,6.845,5.134A30.756,30.756,0,0,0,27.2,70.188a29.958,29.958,0,0,0,9.775,2.248c.218.015.449.015.667.029a1.311,1.311,0,0,0,.74-.189,1.082,1.082,0,0,0,.174-.1l.029.087c5.163-2.1,10.992-3.51,16.794-1.842a18.963,18.963,0,0,1,5.264,2.45,1.328,1.328,0,0,1,.334-.536l6.149-6.149a1.29,1.29,0,0,1,.551-.334,1.432,1.432,0,0,1,1.508.334l.276.275a28.3,28.3,0,0,0,4.525-1.451A30.581,30.581,0,0,0,90.36,48.638a29.755,29.755,0,0,0,2.291-11.08A29,29,0,0,0,90.636,26.537Zm0,0" transform="translate(-7.084 -7.082)"/><path class="b" d="M214.311,236.98v.015a1.29,1.29,0,0,0-.551.334l-6.149,6.149a1.328,1.328,0,0,0-.334.536c-.377-.246-.754-.479-1.145-.7a18.522,18.522,0,0,0-4.119-1.755c-5.8-1.668-11.631-.262-16.794,1.842l-.029-.087a1.573,1.573,0,0,0,.159-.145l6.613-6.613c.015-.015.015-.015.029-.015l16.765-16.764,4.7-4.713a1.335,1.335,0,0,0,.246-.333l.058.029c-2.132,5.207-3.6,11.109-1.9,16.967A18.67,18.67,0,0,0,214.311,236.98Zm0,0" transform="translate(-153.717 -178.225)"/><path class="c" d="M210.28,264.022v.015a1.289,1.289,0,0,0-.551.333l-3.6,3.6a18.522,18.522,0,0,0-4.119-1.755c-5.8-1.668-11.631-.262-16.794,1.842l-.029-.087a1.571,1.571,0,0,0,.159-.145l6.613-6.613c.015-.015.015-.015.029-.015l16.765-16.764a23.583,23.583,0,0,0-.928,14.343A18.67,18.67,0,0,0,210.28,264.022Zm0,0" transform="translate(-153.717 -202.873)"/><path class="d" d="M340.7,367.16l-4.1,4.089a2.781,2.781,0,0,1-1.146.7,2.837,2.837,0,0,1-2.958-.7l-1.015-1.015h-.015l-2.045-2.059-6.149-6.149-2.045-2.045h-.015l-6.149-6.164a1.433,1.433,0,0,1-.334-1.508,1.328,1.328,0,0,1,.334-.536l6.149-6.149a1.29,1.29,0,0,1,.551-.334,1.432,1.432,0,0,1,1.508.334L340.7,363.056a2.9,2.9,0,0,1,0,4.1Zm0,0" transform="translate(-261.164 -286.52)"/><path class="e" d="M336.536,388.939l-1.088,1.087a2.837,2.837,0,0,1-2.958-.7l-1.015-1.015h-.015l-2.045-2.059-6.149-6.149-2.045-2.045h-.015l-6.149-6.164a1.433,1.433,0,0,1-.334-1.508,1.328,1.328,0,0,1,.334-.536L317.915,367a1.425,1.425,0,0,1,1.19.406l17.432,17.432a2.9,2.9,0,0,1,0,4.1Zm0,0" transform="translate(-261.164 -304.602)"/><path class="f" d="M67.258,68.2a1.39,1.39,0,0,1-.189.754,1.335,1.335,0,0,1-.246.333L45.359,90.761c-.014,0-.014,0-.029.015l-6.613,6.613a1.573,1.573,0,0,1-.159.145,1.082,1.082,0,0,1-.174.1,1.311,1.311,0,0,1-.74.189c-.218-.015-.449-.015-.667-.029A29.958,29.958,0,0,1,27.2,95.547a30.754,30.754,0,0,1-2.958-1.436A29.971,29.971,0,0,1,17.4,88.977a30.288,30.288,0,0,1-6.57-9.789A29.752,29.752,0,0,1,8.538,68.109a29.125,29.125,0,0,1,2.016-11.037A28.463,28.463,0,0,1,26.521,41.12,29.01,29.01,0,0,1,37.543,39.1a30.207,30.207,0,0,1,11.08,2.277A30.7,30.7,0,0,1,65,57.754,29.8,29.8,0,0,1,67.258,68.2Zm0,0" transform="translate(-7.084 -32.44)"/><path class="g" d="M67.259,76.122a1.39,1.39,0,0,1-.189.754,1.322,1.322,0,0,1-.246.334L45.361,98.687c-.015,0-.015,0-.029.015l-6.613,6.613a1.568,1.568,0,0,1-.159.145,1.081,1.081,0,0,1-.174.1,1.3,1.3,0,0,1-.74.189c-.218-.015-.449-.015-.667-.029a29.94,29.94,0,0,1-9.775-2.248,30.905,30.905,0,0,1-2.958-1.435A29.973,29.973,0,0,1,17.4,96.9a30.278,30.278,0,0,1-6.57-9.789,29.754,29.754,0,0,1-2.293-11.08A29.119,29.119,0,0,1,10.555,65,28.462,28.462,0,0,1,26.521,49.048a29.022,29.022,0,0,1,11.022-2.017,30.221,30.221,0,0,1,11.08,2.277A30.709,30.709,0,0,1,65,65.68,29.8,29.8,0,0,1,67.259,76.122Zm0,0" transform="translate(-7.084 -39.02)"/><path class="g" d="M67.258,67.6a1.39,1.39,0,0,1-.189.754,1.334,1.334,0,0,1-.246.333L45.359,90.163c-.014,0-.014,0-.029.015l-6.613,6.613a1.5,1.5,0,0,1-.159.145,1.082,1.082,0,0,1-.174.1,1.311,1.311,0,0,1-.74.189c-.218-.015-.449-.015-.667-.029-.261-.015-.536-.029-.8-.058a30.141,30.141,0,0,1-8.977-2.19,30.754,30.754,0,0,1-2.958-1.436A29.952,29.952,0,0,1,17.4,88.38a30.292,30.292,0,0,1-6.57-9.789,29.755,29.755,0,0,1-2.292-11.08,29.125,29.125,0,0,1,2.016-11.037A28.565,28.565,0,0,1,22.171,42.684c.015,0,.015-.015.029-.015a26.6,26.6,0,0,1,4.322-2.146,29.01,29.01,0,0,1,11.022-2.016,30.207,30.207,0,0,1,11.08,2.277A30.7,30.7,0,0,1,65,57.157,29.8,29.8,0,0,1,67.258,67.6Zm0,0" transform="translate(-7.084 -31.944)"/><path class="h" d="M62.907,80.314a1.385,1.385,0,0,1-.189.754,1.319,1.319,0,0,1-.246.333L41.009,102.879c-.015,0-.015,0-.029.015l-4.8,4.8A30.141,30.141,0,0,1,27.2,105.5a30.754,30.754,0,0,1-2.958-1.436A29.952,29.952,0,0,1,17.4,98.935a30.292,30.292,0,0,1-6.57-9.789,29.755,29.755,0,0,1-2.292-11.08A29.125,29.125,0,0,1,10.555,67.03,28.565,28.565,0,0,1,22.171,53.239c.015,0,.015-.015.029-.015a29.12,29.12,0,0,1,10.993-2A30.2,30.2,0,0,1,44.272,53.5,30.7,30.7,0,0,1,60.644,69.872,29.785,29.785,0,0,1,62.907,80.314Zm0,0" transform="translate(-7.084 -42.499)"/><path class="i" d="M273.495,38.156a29.755,29.755,0,0,1-2.291,11.08,30.581,30.581,0,0,1-16.373,16.373,28.3,28.3,0,0,1-4.525,1.451l-.275-.275a1.432,1.432,0,0,0-1.508-.334v-.015c-.014-.029-.043-.058-.043-.087a18.036,18.036,0,0,1-2.407-5.163c-1.7-5.859-.232-11.761,1.9-16.967l-.058-.029a1.391,1.391,0,0,0,.189-.754,29.8,29.8,0,0,0-2.262-10.442A30.7,30.7,0,0,0,229.467,16.62a29.527,29.527,0,0,0-3.06-1.073,30.032,30.032,0,0,1,7.005-4.1,29.693,29.693,0,0,1,9.208-2.2q.936-.087,1.871-.087a29.008,29.008,0,0,1,11.022,2.016,28.545,28.545,0,0,1,15.967,15.966A29.01,29.01,0,0,1,273.495,38.156Zm0,0" transform="translate(-187.928 -7.578)"/><path class="j" d="M269.144,38.593a29.755,29.755,0,0,1-2.291,11.08A30.577,30.577,0,0,1,250.48,66.046q-.979.413-2,.74a18.036,18.036,0,0,1-2.407-5.163c-1.7-5.859-.232-11.761,1.9-16.967l-.058-.029a1.391,1.391,0,0,0,.189-.754,29.8,29.8,0,0,0-2.262-10.442,30.7,30.7,0,0,0-16.373-16.373,29.527,29.527,0,0,0-3.06-1.073,30.032,30.032,0,0,1,7.005-4.1,29.693,29.693,0,0,1,9.208-2.2,28.418,28.418,0,0,1,24.509,17.9A29,29,0,0,1,269.144,38.593Zm0,0" transform="translate(-187.928 -8.015)"/><path class="b" d="M62.3,366.469,51.176,377.592l-2.045,2.045-1.03,1.03a2.9,2.9,0,0,1-4.1,0l-2.292-2.292-1.812-1.813a2.9,2.9,0,0,1,0-4.1l5.134-5.119v-.015l4.539-4.539c.754.421,1.522.8,2.306,1.146.218.1.435.2.653.29.8.333,1.61.623,2.422.885A29.771,29.771,0,0,0,62.3,366.469Zm0,0" transform="translate(-32.407 -301.115)"/><path class="c" d="M55.658,366.733l-.711.711-10.4,10.413L42.5,379.916l-.8.8L39.894,378.9a2.9,2.9,0,0,1,0-4.1l5.134-5.119v-.015l4.061-4.061a25.854,25.854,0,0,0,2.784.667A30.6,30.6,0,0,0,55.658,366.733Zm0,0" transform="translate(-32.407 -303.453)"/><path class="c" d="M227.853,425.419a7.251,7.251,0,0,1-7.251,7.251,7.736,7.736,0,0,1-2.175-.319,7.271,7.271,0,0,1,0-13.864,7.712,7.712,0,0,1,2.175-.319A7.251,7.251,0,0,1,227.853,425.419Zm0,0" transform="translate(-177.092 -347.085)"/><path class="k" d="M223.5,426.979c0-3.828-2.272-6.932-5.076-6.932s-5.076,3.1-5.076,6.932,2.272,6.932,5.076,6.932S223.5,430.807,223.5,426.979Zm0,0" transform="translate(-177.092 -348.645)"/><path d="M9.286,57.564a31.984,31.984,0,0,0,5.531,4.394L6.462,70.318a4.351,4.351,0,0,0,0,6.155l4.1,4.1a4.351,4.351,0,0,0,6.155,0L30.469,66.829H30.6a2.872,2.872,0,0,0,.966-.18,1.37,1.37,0,0,0,.318-.062c6.307-2.6,11.394-3.19,16.01-1.853a17.19,17.19,0,0,1,4.153,1.832,2.872,2.872,0,0,0,.82,1.759L70.3,85.756a4.351,4.351,0,0,0,6.152,0l4.1-4.1a4.352,4.352,0,0,0,0-6.153L74.4,69.355l-9.242-9.242c.763-.248,1.53-.525,2.3-.841A32.032,32.032,0,0,0,84.611,42.116a31.027,31.027,0,0,0,2.406-11.622,29.984,29.984,0,0,0-18.9-28.355A30.489,30.489,0,0,0,56.545.022a31.042,31.042,0,0,0-11.62,2.4A31.527,31.527,0,0,0,38.162,6.3a31.01,31.01,0,0,0-7.686-1.093A30.391,30.391,0,0,0,18.9,7.324,29.9,29.9,0,0,0,2.12,24.107,30.354,30.354,0,0,0,0,35.681,31.139,31.139,0,0,0,2.406,47.3,31.647,31.647,0,0,0,9.286,57.564ZM17.74,75.451l-3.078-3.079a1.45,1.45,0,0,0-2.041,2.046L15.7,77.5l-1.027,1.026a1.491,1.491,0,0,1-2.052,0l-4.109-4.1a1.451,1.451,0,0,1,0-2.052l5.124-5.124,3.079,3.079a1.45,1.45,0,0,0,2.051-2.051l-3.079-3.079,1.748-1.747c.7.353,1.393.7,2.117,1.005a31.245,31.245,0,0,0,7.193,2ZM36.648,61.99,56.786,41.852A23.157,23.157,0,0,0,56.747,53.9a20.048,20.048,0,0,0,1.933,4.518l-5.466,5.466A19.991,19.991,0,0,0,48.7,61.946,23.133,23.133,0,0,0,36.648,61.99ZM78.506,79.608,74.4,83.71a1.451,1.451,0,0,1-2.051,0l-1.021-1.026L74.4,79.607a1.45,1.45,0,1,0-2.051-2.051l-3.076,3.077L63.121,74.48,66.2,71.4a1.45,1.45,0,0,0-2.051-2.051L61.07,72.43l-6.153-6.153,6.153-6.153,2.051,2.053-3.078,3.076A1.45,1.45,0,0,0,62.094,67.3l3.076-3.078,6.153,6.153-3.076,3.076A1.45,1.45,0,1,0,70.3,75.506l3.088-3.076,5.126,5.127a1.45,1.45,0,0,1-.005,2.052ZM46.04,5.1A28.183,28.183,0,0,1,56.58,2.922,27.083,27.083,0,0,1,84.117,30.459,28.193,28.193,0,0,1,81.942,41,29.126,29.126,0,0,1,66.35,56.588a27.473,27.473,0,0,1-3.592,1.186,2.864,2.864,0,0,0-1.392-.52A17.228,17.228,0,0,1,59.534,53.1c-1.334-4.616-.744-9.7,1.855-16.006a1.42,1.42,0,0,0,.058-.3,2.893,2.893,0,0,0,.183-1.085A31.178,31.178,0,0,0,59.246,24.76,31.972,31.972,0,0,0,42.1,7.608c-.159-.065-.321-.11-.481-.173A28.943,28.943,0,0,1,46.04,5.1ZM4.819,25.173A26.975,26.975,0,0,1,19.969,10.028,27.38,27.38,0,0,1,30.088,8.114h.355a28.234,28.234,0,0,1,10.54,2.175A29.076,29.076,0,0,1,56.562,25.872a28.026,28.026,0,0,1,2.154,9.944L37.237,57.306l-.016.01-.01.015-6.6,6.6-.007.01a28.28,28.28,0,0,1-9.937-2.162A29.078,29.078,0,0,1,5.08,46.187,28.3,28.3,0,0,1,2.9,35.647,27.428,27.428,0,0,1,4.819,25.173Zm0,0" transform="translate(0 0)"/><path d="M274.882,116.864a22.609,22.609,0,0,1,1.6,6.192,1.451,1.451,0,0,0,1.441,1.293c.054,0,.108,0,.161-.009a1.45,1.45,0,0,0,1.282-1.6,25.518,25.518,0,0,0-1.8-6.99,25.86,25.86,0,0,0-5.633-8.388,1.45,1.45,0,0,0-2.051,2.051A22.974,22.974,0,0,1,274.882,116.864Zm0,0" transform="translate(-223.671 -88.766)"/><path d="M37.435,169.51a1.45,1.45,0,0,0,1.344-2,22.478,22.478,0,0,1-1.74-8.391,21.637,21.637,0,0,1,1.507-8.266,1.45,1.45,0,1,0-2.7-1.066,24.527,24.527,0,0,0-1.709,9.368,25.362,25.362,0,0,0,1.955,9.463A1.449,1.449,0,0,0,37.435,169.51Zm0,0" transform="translate(-28.334 -123.544)"/><path d="M450.829,138.863a1.451,1.451,0,0,0,1.9-.783,25.366,25.366,0,0,0,1.956-9.461,24.541,24.541,0,0,0-1.711-9.374,1.45,1.45,0,1,0-2.7,1.065,21.646,21.646,0,0,1,1.508,8.272,22.479,22.479,0,0,1-1.74,8.385,1.45,1.45,0,0,0,.789,1.9Zm0,0" transform="translate(-373.465 -98.194)"/><path d="M204.816,418.335a8.7,8.7,0,1,0,8.7-8.7A8.7,8.7,0,0,0,204.816,418.335Zm14.5,0a5.8,5.8,0,1,1-5.8-5.8A5.8,5.8,0,0,1,219.319,418.335Zm0,0" transform="translate(-170.007 -340.001)"/><path d="M239.331,444.158a1.45,1.45,0,0,0,1.03,2.48,2.016,2.016,0,0,0,.29-.029.929.929,0,0,0,.261-.087,1.091,1.091,0,0,0,.261-.131,2.191,2.191,0,0,0,.218-.174,1.456,1.456,0,1,0-2.059-2.059Zm0,0" transform="translate(-198.301 -368.304)"/></g></svg>