<svg xmlns="http://www.w3.org/2000/svg" width="168.134" height="92.474" viewBox="0 0 168.134 92.474"><defs><style>.a{fill:#8c5f50;}.b{fill:#a0d755;}.c{fill:#8cbe4b;}.d{fill:#959cb5;}.e{fill:#b4e66e;}.f{fill:#ebc9a0;}</style></defs><g transform="translate(0 -115.199)"><rect class="a" width="5.605" height="16.813" transform="translate(145.716 188.058)"/><path class="b" d="M440.551,228.3a11.209,11.209,0,0,1-22.418,0c0-19.616,5.018-44.836,11.209-44.836S440.551,208.687,440.551,228.3Z" transform="translate(-280.823 -45.85)"/><path class="c" d="M426.54,228.3c0-16.087,2.533-35.918,6-42.542-1.015-1.453-2.089-2.294-3.2-2.294-6.191,0-11.209,25.22-11.209,44.836a11.209,11.209,0,0,0,11.209,11.209,11.1,11.1,0,0,0,3.2-.52C429.081,237.605,426.54,233.372,426.54,228.3Z" transform="translate(-280.823 -45.849)"/><g transform="translate(78.463 176.849)"><rect class="d" width="5.605" height="14.011"/><rect class="d" width="5.605" height="14.011" transform="translate(39.231)"/></g><g transform="translate(16.813 151.628)"><rect class="a" width="5.605" height="53.242" transform="translate(72.858)"/><rect class="a" width="5.605" height="22.418" transform="translate(19.616 30.825)"/><rect class="a" width="5.605" height="16.813" transform="translate(0 36.429)"/></g><g transform="translate(61.65 179.651)"><path class="d" d="M190.536,311.467a2.8,2.8,0,1,0,0,5.6,2.8,2.8,0,0,1,2.8,2.8v16.813h5.6V319.873A8.416,8.416,0,0,0,190.536,311.467Z" transform="translate(-187.734 -311.467)"/><path class="d" d="M400.94,311.467a8.416,8.416,0,0,0-8.407,8.407v16.813h5.6V319.874a2.8,2.8,0,0,1,2.8-2.8,2.8,2.8,0,0,0,0-5.6Z" transform="translate(-325.28 -311.467)"/></g><g transform="translate(2.802 115.199)"><path class="b" d="M98.965,168.443a19.616,19.616,0,0,1-39.231,0c0-25.22,8.782-53.242,19.616-53.242S98.965,143.222,98.965,168.443Z" transform="translate(-42.92 -115.2)"/><path class="b" d="M42.16,217.937c0,8.75-7.528,15.843-16.813,15.843S8.533,226.687,8.533,217.937c0-20.37,7.528-43,16.813-43S42.16,197.566,42.16,217.937Z" transform="translate(-8.533 -155.317)"/><circle class="b" cx="19.616" cy="19.616" r="19.616" transform="translate(70.056 2.802)"/></g><path class="e" d="M165.332,385.338H2.8a2.8,2.8,0,1,1,0-5.6h162.53a2.8,2.8,0,0,1,0,5.6Z" transform="translate(0 -177.665)"/><g transform="translate(2.802 115.199)"><path class="c" d="M70.943,168.442c0-23,4.872-48.329,11.209-52.6a6.8,6.8,0,0,0-2.8-.639c-10.834,0-19.616,28.022-19.616,53.242a19.478,19.478,0,0,0,22.418,19.393C75.817,186.472,70.943,178.321,70.943,168.442Z" transform="translate(-42.921 -115.199)"/><path class="c" d="M19.743,217.937c0-18.383,3.58-38.552,8.259-42.322a6.267,6.267,0,0,0-2.655-.681c-9.286,0-16.813,22.633-16.813,43,0,8.75,7.528,15.843,16.813,15.843A17.84,17.84,0,0,0,28,233.564C23.323,232.361,19.743,225.833,19.743,217.937Z" transform="translate(-8.534 -155.317)"/><path class="c" d="M233.076,143.349a19.616,19.616,0,0,1,14.011-18.793,19.616,19.616,0,1,0,0,37.585A19.615,19.615,0,0,1,233.076,143.349Z" transform="translate(-151.811 -120.931)"/></g><g transform="translate(67.254 168.442)"><path class="f" d="M278.038,288.543H233.2a2.8,2.8,0,0,1-2.8-2.8v-5.6a2.8,2.8,0,0,1,2.8-2.8h44.836a2.8,2.8,0,0,1,2.8,2.8v5.6A2.8,2.8,0,0,1,278.038,288.543Z" transform="translate(-221.993 -277.334)"/><path class="f" d="M269.252,342.671H207.6a2.8,2.8,0,1,1,0-5.6h61.649a2.8,2.8,0,0,1,0,5.6Z" transform="translate(-204.8 -317.451)"/></g></g></svg>