<svg xmlns="http://www.w3.org/2000/svg" width="103.776" height="105.916" viewBox="0 0 103.776 105.916"><defs><style>.a{fill:#155893;}</style></defs><g transform="translate(0)"><path class="a" d="M250.7,388.872v-7.489c0-4.675-2.814-7.489-7.489-7.489H196.139c-6.283,0-8.559,3.058-8.559,7.489v9.629c0,4.628,2.145,6.419,8.559,6.419h47.074C247.887,397.431,250.7,394.758,250.7,388.872Zm-8.559,0H195.069v-6.419h47.074Z" transform="translate(-146.925 -291.515)"/><path class="a" d="M78.07,34.235V54.563h0l3.21,7.489H77L32.066,0,22.437,5.349l3.21,5.349V38.515h-3.21l2.14,14.978h1.07v4.279a7.213,7.213,0,0,0-4.279,6.419,4.9,4.9,0,0,0,2.14,4.279L11.738,78.1h3.21l10.7-8.559a10.719,10.719,0,0,0,3.21,1.07c.978,0,1.264-.6,2.14-1.07L42.764,78.1h3.21L33.136,68.471a6.547,6.547,0,0,0,1.07-4.279,2.14,2.14,0,0,0-4.279,0c0,.76.269.763,0,1.07h-1.07a.7.7,0,0,0-1.07,0l-1.07,1.07c-.686-.318-1.07-.948-1.07-2.14a3.782,3.782,0,0,1,2.14-3.21,2.547,2.547,0,0,0,2.14-2.14V53.493h2.14l3.21-14.978h-3.21V23.537L57.742,71.681v1.07h0v2.14h7.489V78.1h32.1V74.89h12.838V34.235Zm-18.188,10.7h0l-8.559,6.419L55.6,39.585ZM29.926,38.515h-2.14V14.978l2.14,4.279Zm2.14-21.4L27.786,9.629l5.349-3.21ZM36.345,10.7l4.279,6.419L34.205,21.4Zm1.07,14.978L43.834,21.4l-3.21,11.768Zm8.559,0L50.253,32.1l-6.419,4.279ZM44.9,41.724l7.489-5.349L48.114,48.144ZM56.672,62.052l-4.279-7.489,9.629-6.419Zm3.21,4.279,5.349-13.908,5.349,7.489Zm41.725-10.7H86.629V42.794h14.978Z" transform="translate(-10.669)"/><path class="a" d="M7.615,375.009H5.475v4.279H39.711v-4.279H35.431V368.59h4.279V364.31H5.475v4.279H9.755v6.419Z" transform="translate(-5.475 -284.071)"/></g></svg>