<svg xmlns="http://www.w3.org/2000/svg" width="100.848" height="93.287" viewBox="0 0 100.848 93.287"><defs><style>.a{fill:#155893;}</style></defs><g transform="translate(0 0)"><path class="a" d="M194.556,22.569A27.444,27.444,0,1,0,222,50.014,27.461,27.461,0,0,0,194.556,22.569Zm0,48.028a20.252,20.252,0,0,1-20.583-20.583c0-11.634,8.949-21.563,20.583-21.563a21.926,21.926,0,0,1,21.563,21.563C216.119,61.647,206.19,70.6,194.556,70.6Z" transform="translate(-121.152 -22.569)"/><g transform="translate(0 65.313)"><path class="a" d="M167.678,227.992a77.09,77.09,0,0,1-21.829,6.752c-7.2.961-20.836-1.483-20.836-4.22,0-1.037,11.663,2.476,18.852.844,5.513-1.251,4.983-5.33,1.984-5.908-2.981-.576-20.322-5.721-27.782-5.908a149.7,149.7,0,0,0-16.868.844c-1.438.2-1.894.517-1.984,1.688-.418,5.441-1.536,16.977-1.984,22.789-.009.123.382,1.162,1.984,0a9.87,9.87,0,0,1,6.945-1.688c3.569.689,34.437,5.062,38.7,4.22,6.093-1.2,22.491-9.958,25.8-12.661C175.78,230.555,171.971,225.977,167.678,227.992Z" transform="translate(-72.706 -219.538)"/><path class="a" d="M18.356,222.444l-13.5-.844c-1.062-.052-2.268,1.5-2.532,2.532L-.213,246.077a2.177,2.177,0,0,0,1.688,2.532H16.668c1.063.041,2.451-.628,2.532-1.688l1.688-21.945C20.969,223.916,19.418,222.5,18.356,222.444Zm-7.6,22.789c-2.1,0-4.22-1.275-4.22-3.376a4.553,4.553,0,0,1,4.22-4.22c2.1,0,3.376,2.119,3.376,4.22A3.114,3.114,0,0,1,10.76,245.233Z" transform="translate(0.26 -221.586)"/></g></g></svg>