<svg xmlns="http://www.w3.org/2000/svg" width="52.065" height="60.822" viewBox="0 0 52.065 60.822">
  <g id="Group_449" data-name="Group 449" transform="translate(-1379.902 -2496.908)">
    <path id="Path_281" data-name="Path 281" d="M212.333,66.328h30.521V7.533H212.333Z" transform="translate(1189.113 2490.389)" fill="#ffe100"/>
    <path id="Path_282" data-name="Path 282" d="M186.733,66.328h30.521V7.533H186.733Z" transform="translate(1212.02 2490.389)" fill="#ffa800"/>
    <path id="Path_283" data-name="Path 283" d="M16.067,66.328H46.588V7.533H16.067Z" transform="translate(1364.732 2490.389)" fill="#fff"/>
    <path id="Path_284" data-name="Path 284" d="M41.667,66.328H84.756V7.533H41.667Z" transform="translate(1341.826 2490.389)" fill="#ffe100"/>
    <path id="Path_285" data-name="Path 285" d="M171.905,45.721h-8.977a2.042,2.042,0,0,1,0-4.055h8.977a2.042,2.042,0,0,1,0,4.055" transform="translate(1234.927 2460.311)" fill="#ffa800"/>
    <path id="Path_286" data-name="Path 286" d="M56.907,59.822H8.432a.907.907,0,0,1-.9-1.014V.014A.907.907,0,0,1,8.432-1H56.907A.907.907,0,0,1,57.8.014V58.809A.907.907,0,0,1,56.907,59.822ZM9.329,57.795H56.009V1.027H9.329Z" transform="translate(1372.368 2497.908)"/>
    <path id="Path_287" data-name="Path 287" d="M164.27,39.215h-8.977a2.831,2.831,0,0,1-2.693-3.041,2.831,2.831,0,0,1,2.693-3.041h8.977a2.831,2.831,0,0,1,2.693,3.041A2.831,2.831,0,0,1,164.27,39.215Zm-8.977-4.055a1.021,1.021,0,0,0,0,2.027h8.977a1.021,1.021,0,0,0,0-2.027Z" transform="translate(1242.563 2467.83)"/>
    <path id="Path_288" data-name="Path 288" d="M75.79,150.058H59.632a.907.907,0,0,1-.9-1.014v-46.63a.907.907,0,0,1,.9-1.014H75.79a.907.907,0,0,1,.9,1.014v46.63A.908.908,0,0,1,75.79,150.058ZM60.529,148.03H74.892v-44.6H60.529Z" transform="translate(1326.555 2407.672)"/>
    <path id="Path_289" data-name="Path 289" d="M404.556,259.054a.774.774,0,0,1-.628-.3l-1.167-1.318-1.167,1.318a.8.8,0,0,1-1.257,0,1.07,1.07,0,0,1,0-1.419l1.8-2.027a.8.8,0,0,1,1.257,0l1.8,2.027a1.07,1.07,0,0,1,0,1.419A.775.775,0,0,1,404.556,259.054Z" transform="translate(1021.128 2272.318)"/>
    <path id="Path_290" data-name="Path 290" d="M402.76,327.321a.774.774,0,0,1-.628-.3l-1.8-2.027a1.07,1.07,0,0,1,0-1.419.8.8,0,0,1,1.257,0l1.167,1.318,1.167-1.318a.8.8,0,0,1,1.257,0,1.07,1.07,0,0,1,0,1.419l-1.8,2.027A.774.774,0,0,1,402.76,327.321Z" transform="translate(1021.128 2212.162)"/>
    <path id="Path_291" data-name="Path 291" d="M229.39,150.058H213.232a.907.907,0,0,1-.9-1.014v-46.63a.907.907,0,0,1,.9-1.014H229.39a.907.907,0,0,1,.9,1.014v46.63A.908.908,0,0,1,229.39,150.058Zm-15.261-2.027h14.363v-44.6H214.129Z" transform="translate(1189.112 2407.672)"/>
  </g>
</svg>
