<svg xmlns="http://www.w3.org/2000/svg" width="103.095" height="96.287" viewBox="0 0 103.095 96.287"><defs><style>.a{fill:#155893;}</style></defs><path class="a" d="M98.232,92.64V9L86.561,1.216,45.712,20.668V35.257L22.37,43.038v9.726L4.863,57.627V91.667H0V97.5H9.726V61.517L38.9,54.709V97.5H52.52V91.667H49.6V57.627l-6.808-10.7L27.233,51.791V46.928L57.383,37.2V97.5h21.4V91.667H74.89V36.229L63.219,28.449l-12.644,3.89.973-7.781L81.7,10.942V97.5h21.4V92.64Z" transform="translate(0 -1.216)"/><path class="a" d="M36.7,27.681H15.3V20.873l21.4-3.89Z" transform="translate(25.545 25.812)"/><path class="a" d="M36.7,23.791l-21.4,3.89V20.873l21.4-3.89Z" transform="translate(25.545 25.812)"/><path class="a" d="M36.7,23.791l-21.4,3.89V20.873l21.4-3.89Z" transform="translate(25.545 25.812)"/><path class="a" d="M36.7,23.791l-21.4,3.89V20.873l21.4-3.89Z" transform="translate(25.545 25.812)"/></svg>