<svg xmlns="http://www.w3.org/2000/svg" xmlns:xlink="http://www.w3.org/1999/xlink" width="116.427" height="158.866" viewBox="0 0 116.427 158.866"><defs><style>.a{fill:#ffe100;}.b{clip-path:url(#a);}.c{fill:#ff826e;}.d{fill:#ccd1d9;}.e{fill:#969faa;}.f{fill:#e6e9ed;}.g{fill:#cf9e76;}.h{fill:#b4dd7f;}.i{fill:#fcd770;}.j{fill:#f0d0b4;}</style><clipPath id="a"><path class="a" d="M41.667,166.4H158.094V7.533H41.667Z" transform="translate(-41.667 -7.533)"/></clipPath></defs><g class="b"><g transform="translate(0 21.218)"><path class="c" d="M100.448,2.8V14.067H2.8V2.8Z" transform="translate(-0.922 -0.922)"/><g transform="translate(5.634 13.145)"><path class="d" d="M5.6,11.2H24.378V112.6H5.6Z" transform="translate(-5.599 -11.199)"/><path class="d" d="M81.875,11.2V26.222H78.119a3.767,3.767,0,0,0-3.756,3.756V52.512H46.2a9.389,9.389,0,0,0,5.634-16.9V11.2Z" transform="translate(8.262 -11.199)"/><path class="d" d="M80.68,100.176H49.7a4.7,4.7,0,0,0,4.695-4.695V51.351A3.767,3.767,0,0,1,58.146,47.6H73.169V62.618a3.767,3.767,0,0,0,3.756,3.756H80.68Z" transform="translate(9.457 1.229)"/></g><path class="e" d="M89.728,22.4H70.95a3.767,3.767,0,0,0-3.756,3.756V71.222a3.767,3.767,0,0,0,3.756,3.756H89.728a3.767,3.767,0,0,0,3.756-3.756V26.154A3.767,3.767,0,0,0,89.728,22.4Z" transform="translate(21.066 5.77)"/><path class="f" d="M19.6,11.2H60.911V112.6H19.6Z" transform="translate(4.814 1.946)"/><path class="g" d="M28.987,62.994V90.223a4.695,4.695,0,0,1-9.389,0V62.994Z" transform="translate(4.814 19.632)"/><path class="g" d="M35.987,62.994V90.223a4.695,4.695,0,0,1-9.389,0V62.994h9.389Z" transform="translate(7.204 19.632)"/><path class="h" d="M38.377,67.33v1.878H19.6V44.8H34.621a11.272,11.272,0,0,1,5.54,1.446,11,11,0,0,0-1.784,6.065V67.33Z" transform="translate(4.814 13.418)"/><path class="g" d="M55.585,62.994V90.223a4.695,4.695,0,1,1-9.389,0V62.994Z" transform="translate(13.896 19.632)"/><path class="g" d="M48.586,62.994V90.223a4.695,4.695,0,1,1-9.389,0V62.994Z" transform="translate(11.506 19.632)"/><path class="i" d="M41.108,70.164V73.92H39.23A5.626,5.626,0,0,1,33.6,68.286V53.263A11,11,0,0,1,35.381,47.2,11.256,11.256,0,0,1,44.864,42H86.177a3.767,3.767,0,0,1,3.756,3.756,3.683,3.683,0,0,1-1.108,2.667,3.732,3.732,0,0,1-2.648,1.089H63.643a3.767,3.767,0,0,0-3.756,3.756v16.9H41.108Z" transform="translate(9.594 12.462)"/><circle class="j" cx="9.389" cy="9.389" r="9.389" transform="translate(24.412 39.435)"/><path class="j" d="M54.219,29.875A9.389,9.389,0,1,1,48.586,28,9.279,9.279,0,0,1,54.219,29.875Z" transform="translate(11.506 7.682)"/><path class="c" d="M78.427,29.4l5.634,9.389H72.793Z" transform="translate(22.978 8.16)"/><path class="c" d="M84.06,47.6l-5.634,9.389L72.793,47.6Z" transform="translate(22.978 14.374)"/><path d="M112.194,27.69H99.049V16.423H102.8V1.4H1.4V16.423H5.156v101.4H30.488l.019,0,.019,0h9.354l.019,0,.017,0H56.78l.019,0,.017,0h9.354l.019,0,.017,0H99.049v-33.8h13.145a5.64,5.64,0,0,0,5.634-5.634V33.323A5.64,5.64,0,0,0,112.194,27.69Zm-16.9,0H93.415a5.64,5.64,0,0,0-5.634,5.634V53.982H69.865A11.209,11.209,0,0,0,69,38.093V16.423h26.29Zm9.829,37.557L102.8,69.11l-2.317-3.863ZM97.18,61.491H93.854l0,0H74.636A5.64,5.64,0,0,0,69,67.127V82.148H53.98V67.127H50.224V85.905a3.759,3.759,0,0,1-3.756-3.756V67.127a9.4,9.4,0,0,1,9.389-9.389H97.171a1.877,1.877,0,0,1,.009,3.754Zm-31.013,52.58a2.818,2.818,0,0,1-2.8-2.815V85.9H69v25.353a2.818,2.818,0,0,1-2.8,2.815Zm-9.389,0a2.818,2.818,0,0,1-2.8-2.815V85.9h5.634v25.353a2.818,2.818,0,0,1-2.8,2.815Zm-16.9,0a2.818,2.818,0,0,1-2.8-2.815V85.9h5.634v25.353a2.818,2.818,0,0,1-2.8,2.815Zm-9.389,0a2.818,2.818,0,0,1-2.8-2.815V85.9h5.634v25.353a2.818,2.818,0,0,1-2.8,2.815ZM65.247,16.423V35.859a11.249,11.249,0,0,0-11.9,18.371A13.14,13.14,0,0,0,45.781,58.7a13.31,13.31,0,0,0-2.449-.7A11.251,11.251,0,0,0,27.69,41.849V16.423ZM69,46.469a7.511,7.511,0,1,1-7.511-7.511A7.519,7.519,0,0,1,69,46.469ZM42.713,82.148H27.69V61.491H35.2v0h5.634a9.44,9.44,0,0,1,2.929.486,13.073,13.073,0,0,0-1.052,5.147V82.148ZM27.69,50.224A7.511,7.511,0,1,1,35.2,57.736,7.519,7.519,0,0,1,27.69,50.224Zm18.779,61.032V88.617a7.434,7.434,0,0,0,3.756,1.044v21.6a6.477,6.477,0,0,0,.659,2.815H45.811A6.5,6.5,0,0,0,46.469,111.257ZM5.156,5.156H99.049v7.511H5.156ZM8.911,16.423H23.934v97.649H8.911Zm86.382,97.649H72.1a6.477,6.477,0,0,0,.659-2.815V67.127a1.88,1.88,0,0,1,1.878-1.878H87.781V78.392a5.64,5.64,0,0,0,5.634,5.634h1.878Zm18.779-35.679a1.88,1.88,0,0,1-1.878,1.878H93.415a1.88,1.88,0,0,1-1.878-1.878V65.249H96.11L102.8,76.407l8.95-14.916h-9.3a5.559,5.559,0,0,0,.346-1.876,5.64,5.64,0,0,0-5.634-5.634H91.537V33.323a1.88,1.88,0,0,1,1.878-1.878h18.779a1.88,1.88,0,0,1,1.878,1.878Z" transform="translate(-1.4 -1.4)"/><path d="M70.321,41.593h17.9l-8.95-14.916Zm6.633-3.756,2.317-3.863,2.317,3.863Z" transform="translate(22.133 7.231)"/><path d="M9.8,15.4h3.756v3.756H9.8Z" transform="translate(1.468 3.38)"/><path d="M9.8,21h3.756v3.756H9.8Z" transform="translate(1.468 5.292)"/><path d="M9.8,26.6h3.756v3.756H9.8Z" transform="translate(1.468 7.204)"/><path d="M65.794,15.4H69.55v3.756H65.794Z" transform="translate(20.588 3.38)"/><path d="M60.194,15.4H63.95v3.756H60.194Z" transform="translate(18.676 3.38)"/><path d="M54.595,15.4h3.756v3.756H54.595Z" transform="translate(16.764 3.38)"/><path d="M65.794,79.793H69.55v3.756H65.794Z" transform="translate(20.588 25.367)"/><path d="M65.794,65.794H69.55V80.817H65.794Z" transform="translate(20.588 20.588)"/></g></g></svg>