<svg xmlns="http://www.w3.org/2000/svg" width="68.232" height="74.5" viewBox="0 0 68.232 74.5"><defs><style>.a,.b,.c{fill:#4b370a;}.b{fill-rule:evenodd;}.c{font-size:1px;font-family:HelveticaNeue-Bold, Helvetica Neue;font-weight:700;}</style></defs><path class="a" d="M81.825,48.211h0a23.77,23.77,0,0,1,0,33.614h0a23.77,23.77,0,0,1-33.614,0h0a23.77,23.77,0,0,1,0-33.614h0A23.77,23.77,0,0,1,81.825,48.211ZM80.07,49.967a21.348,21.348,0,0,0-30.1,0h0a21.348,21.348,0,0,0,0,30.1h0a21.348,21.348,0,0,0,30.1,0h0a21.348,21.348,0,0,0,0-30.1Z" transform="translate(-30.902 -30.902)"/><path class="b" d="M125.512,0l1.756,6.522,1.756,6.271H122l1.756-6.271Z" transform="translate(-91.396)"/><path class="b" d="M233.794,126.512l-6.522-1.756L221,123v7.024l6.271-1.756Z" transform="translate(-165.561 -92.145)"/><path class="b" d="M0,126.512l6.522-1.756L12.794,123v7.024l-6.271-1.756Z" transform="translate(0 -92.145)"/><path class="b" d="M125.512,233.794l1.756-6.522L129.024,221H122l1.756,6.271Z" transform="translate(-91.396 -165.561)"/><path class="a" d="M106.53,87.716h0a15.305,15.305,0,0,1,0,11.539c-4.515,11.539-21.573,11.539-26.34.251v-.251a18.159,18.159,0,0,1,0-11.539C84.957,76.428,102.015,76.428,106.53,87.716Zm-2.258,1h0c-3.763-9.282-17.811-9.282-21.573,0a13.184,13.184,0,0,0,0,9.783h0c3.763,9.282,17.811,9.282,21.573,0A13.184,13.184,0,0,0,104.273,88.72Z" transform="translate(-59.37 -59.37)"/><text class="c" transform="translate(0 71.5)"><tspan x="0" y="0">Created by yanti anis</tspan></text><text class="c" transform="translate(0 73.5)"><tspan x="0" y="0">from the Noun Project</tspan></text></svg>