<svg xmlns="http://www.w3.org/2000/svg" width="31.296" height="65" viewBox="0 0 31.296 65"><defs><style>.a{fill:#4b370a;}</style></defs><g transform="translate(0 0)"><path class="a" d="M31.463,3h-9.63a1.243,1.243,0,0,0-.855.349l-9.63,9.63a1.243,1.243,0,0,0-.349.855V52.352a1.207,1.207,0,0,0,1.2,1.2H41.093a1.207,1.207,0,0,0,1.2-1.2V13.833a1.243,1.243,0,0,0-.349-.855l-9.63-9.63A1.243,1.243,0,0,0,31.463,3Zm8.426,48.148H13.407V14.327l8.919-8.919h8.631l8.931,8.919Z" transform="translate(-11 -3)"/><path class="a" d="M25.019,7a6.019,6.019,0,1,0,6.019,6.019A6.021,6.021,0,0,0,25.019,7Zm0,9.63a3.611,3.611,0,1,1,3.611-3.611A3.622,3.622,0,0,1,25.019,16.63Z" transform="translate(-9.37 45.963)"/></g></svg>