<svg xmlns="http://www.w3.org/2000/svg" width="71.24" height="71.24" viewBox="0 0 71.24 71.24"><defs><style>.a{fill:#4b370a;}</style></defs><g transform="translate(-2 -2)"><path class="a" d="M66.116,7.937a1.187,1.187,0,0,0-1.187-1.187H62.554V3.187A1.187,1.187,0,0,0,61.367,2H13.873a1.187,1.187,0,0,0-1.187,1.187V6.749H10.311A1.187,1.187,0,0,0,9.124,7.937V18.623H4.375V61.367H6.749V58.992H9.124V70.866H2V73.24H73.24V70.866H66.116ZM9.124,56.618H6.749V54.243H9.124Zm0-4.749H6.749V49.493H9.124Zm0-4.749H6.749V44.744H9.124Zm0-4.749H6.749V39.995H9.124Zm0-4.749H6.749V35.245H9.124Zm0-4.749H6.749V30.5H9.124Zm0-4.749H6.749V25.747H9.124Zm0-4.749H6.749V21H9.124Zm5.937-19H60.18V6.749H15.061ZM36.433,70.866H29.309v-9.5h7.124Zm9.5,0H38.807v-9.5h7.124Zm17.81,0H48.306V60.18a1.187,1.187,0,0,0-1.187-1.187h-19a1.187,1.187,0,0,0-1.187,1.187V70.866H11.5V9.124H63.742Z" transform="translate(0 0)"/><path class="a" d="M31.311,10H24.187A1.187,1.187,0,0,0,23,11.187v7.124A1.187,1.187,0,0,0,24.187,19.5h7.124A1.187,1.187,0,0,0,32.5,18.311V11.187A1.187,1.187,0,0,0,31.311,10Zm-1.187,7.124H25.375V12.375h4.749Z" transform="translate(3.934 1.499)"/><path class="a" d="M21.311,10H14.187A1.187,1.187,0,0,0,13,11.187v7.124A1.187,1.187,0,0,0,14.187,19.5h7.124A1.187,1.187,0,0,0,22.5,18.311V11.187A1.187,1.187,0,0,0,21.311,10Zm-1.187,7.124H15.375V12.375h4.749Z" transform="translate(2.061 1.499)"/><path class="a" d="M41.311,10H34.187A1.187,1.187,0,0,0,33,11.187v7.124A1.187,1.187,0,0,0,34.187,19.5h7.124A1.187,1.187,0,0,0,42.5,18.311V11.187A1.187,1.187,0,0,0,41.311,10Zm-1.187,7.124H35.375V12.375h4.749Z" transform="translate(5.807 1.499)"/><path class="a" d="M51.311,10H44.187A1.187,1.187,0,0,0,43,11.187v7.124A1.187,1.187,0,0,0,44.187,19.5h7.124A1.187,1.187,0,0,0,52.5,18.311V11.187A1.187,1.187,0,0,0,51.311,10Zm-1.187,7.124H45.375V12.375h4.749Z" transform="translate(7.681 1.499)"/><path class="a" d="M31.311,20H24.187A1.187,1.187,0,0,0,23,21.187v7.124A1.187,1.187,0,0,0,24.187,29.5h7.124A1.187,1.187,0,0,0,32.5,28.311V21.187A1.187,1.187,0,0,0,31.311,20Zm-1.187,7.124H25.375V22.375h4.749Z" transform="translate(3.934 3.372)"/><path class="a" d="M21.311,20H14.187A1.187,1.187,0,0,0,13,21.187v7.124A1.187,1.187,0,0,0,14.187,29.5h7.124A1.187,1.187,0,0,0,22.5,28.311V21.187A1.187,1.187,0,0,0,21.311,20Zm-1.187,7.124H15.375V22.375h4.749Z" transform="translate(2.061 3.372)"/><path class="a" d="M41.311,20H34.187A1.187,1.187,0,0,0,33,21.187v7.124A1.187,1.187,0,0,0,34.187,29.5h7.124A1.187,1.187,0,0,0,42.5,28.311V21.187A1.187,1.187,0,0,0,41.311,20Zm-1.187,7.124H35.375V22.375h4.749Z" transform="translate(5.807 3.372)"/><path class="a" d="M51.311,20H44.187A1.187,1.187,0,0,0,43,21.187v7.124A1.187,1.187,0,0,0,44.187,29.5h7.124A1.187,1.187,0,0,0,52.5,28.311V21.187A1.187,1.187,0,0,0,51.311,20Zm-1.187,7.124H45.375V22.375h4.749Z" transform="translate(7.681 3.372)"/><path class="a" d="M31.311,30H24.187A1.187,1.187,0,0,0,23,31.187v7.124A1.187,1.187,0,0,0,24.187,39.5h7.124A1.187,1.187,0,0,0,32.5,38.311V31.187A1.187,1.187,0,0,0,31.311,30Zm-1.187,7.124H25.375V32.375h4.749Z" transform="translate(3.934 5.245)"/><path class="a" d="M21.311,30H14.187A1.187,1.187,0,0,0,13,31.187v7.124A1.187,1.187,0,0,0,14.187,39.5h7.124A1.187,1.187,0,0,0,22.5,38.311V31.187A1.187,1.187,0,0,0,21.311,30Zm-1.187,7.124H15.375V32.375h4.749Z" transform="translate(2.061 5.245)"/><path class="a" d="M41.311,30H34.187A1.187,1.187,0,0,0,33,31.187v7.124A1.187,1.187,0,0,0,34.187,39.5h7.124A1.187,1.187,0,0,0,42.5,38.311V31.187A1.187,1.187,0,0,0,41.311,30Zm-1.187,7.124H35.375V32.375h4.749Z" transform="translate(5.807 5.245)"/><path class="a" d="M51.311,30H44.187A1.187,1.187,0,0,0,43,31.187v7.124A1.187,1.187,0,0,0,44.187,39.5h7.124A1.187,1.187,0,0,0,52.5,38.311V31.187A1.187,1.187,0,0,0,51.311,30Zm-1.187,7.124H45.375V32.375h4.749Z" transform="translate(7.681 5.245)"/><path class="a" d="M31.311,40H24.187A1.187,1.187,0,0,0,23,41.187v7.124A1.187,1.187,0,0,0,24.187,49.5h7.124A1.187,1.187,0,0,0,32.5,48.311V41.187A1.187,1.187,0,0,0,31.311,40Zm-1.187,7.124H25.375V42.375h4.749Z" transform="translate(3.934 7.119)"/><path class="a" d="M21.311,40H14.187A1.187,1.187,0,0,0,13,41.187v7.124A1.187,1.187,0,0,0,14.187,49.5h7.124A1.187,1.187,0,0,0,22.5,48.311V41.187A1.187,1.187,0,0,0,21.311,40Zm-1.187,7.124H15.375V42.375h4.749Z" transform="translate(2.061 7.119)"/><path class="a" d="M41.311,40H34.187A1.187,1.187,0,0,0,33,41.187v7.124A1.187,1.187,0,0,0,34.187,49.5h7.124A1.187,1.187,0,0,0,42.5,48.311V41.187A1.187,1.187,0,0,0,41.311,40Zm-1.187,7.124H35.375V42.375h4.749Z" transform="translate(5.807 7.119)"/><path class="a" d="M51.311,40H44.187A1.187,1.187,0,0,0,43,41.187v7.124A1.187,1.187,0,0,0,44.187,49.5h7.124A1.187,1.187,0,0,0,52.5,48.311V41.187A1.187,1.187,0,0,0,51.311,40Zm-1.187,7.124H45.375V42.375h4.749Z" transform="translate(7.681 7.119)"/><path class="a" d="M21.311,50H14.187A1.187,1.187,0,0,0,13,51.187v7.124A1.187,1.187,0,0,0,14.187,59.5h7.124A1.187,1.187,0,0,0,22.5,58.311V51.187A1.187,1.187,0,0,0,21.311,50Zm-1.187,7.124H15.375V52.375h4.749Z" transform="translate(2.061 8.992)"/><path class="a" d="M51.311,50H44.187A1.187,1.187,0,0,0,43,51.187v7.124A1.187,1.187,0,0,0,44.187,59.5h7.124A1.187,1.187,0,0,0,52.5,58.311V51.187A1.187,1.187,0,0,0,51.311,50Zm-1.187,7.124H45.375V52.375h4.749Z" transform="translate(7.681 8.992)"/></g></svg>