<svg xmlns="http://www.w3.org/2000/svg" width="45.389" height="73.918" viewBox="0 0 45.389 73.918"><defs><style>.a{fill:#4b370a;fill-rule:evenodd;}</style></defs><g transform="translate(-16.014 -19)"><g transform="translate(16.014 19)"><path class="a" d="M197.695,19a22.691,22.691,0,0,1,22.695,22.695c0,17.2-21.963,38.8-21.963,46.762a.734.734,0,0,1-1.464,0C196.963,80.5,175,58.9,175,41.695A22.691,22.691,0,0,1,197.695,19Zm2.562,65.7c4.3.183,11.53,1.19,11.53,4.026,0,5.582-28.094,5.582-28.094,0,0-2.837,7.229-3.843,11.53-4.026.275.641.549,1.281.732,1.83-3.477.183-10.341.824-10.341,2.2,0,2.928,24.25,2.928,24.25,0,0-1.373-6.863-2.013-10.341-2.2C199.708,85.986,199.982,85.345,200.257,84.7Zm18.394-43.01a20.91,20.91,0,0,0-41.82,0c0,15.465,18.851,35.6,20.864,42.553C199.891,77.2,218.651,57.068,218.651,41.695ZM197.695,29.158a12.583,12.583,0,1,1-12.537,12.537A12.576,12.576,0,0,1,197.695,29.158Zm0,1.739a10.844,10.844,0,1,1-10.8,10.8A10.838,10.838,0,0,1,197.695,30.9Z" transform="translate(-175 -19)"/></g></g></svg>