<svg xmlns="http://www.w3.org/2000/svg" width="84" height="51.756" viewBox="0 0 84 51.756"><defs><style>.a{fill:#4b370a;}</style></defs><g transform="translate(-3 -19)"><g transform="translate(3 19)"><path class="a" d="M68,62.441H45V38H68ZM47.875,59.565H65.128V40.875H47.875Z" transform="translate(15.383 -10.684)"/><rect class="a" width="24" height="3" transform="translate(60 37)"/><rect class="a" width="4" height="3" transform="translate(70 42)"/><rect class="a" width="4" height="2" transform="translate(70 32)"/><path class="a" d="M60.507,58.939H57.632V48.875H5.875V58.939H3V46H60.507Z" transform="translate(-3 -7.183)"/><path class="a" d="M60.507,51.5H3V40H60.507ZM5.875,48.626H57.632V42.875H5.875Z" transform="translate(-3 -9.809)"/><path class="a" d="M58.632,46.377H4V41.072A9.115,9.115,0,0,1,13.072,32H49.56a9.1,9.1,0,0,1,9.072,9.072ZM6.875,43.5H55.756v-2.43a6.211,6.211,0,0,0-6.2-6.2H13.072a6.038,6.038,0,0,0-3.853,1.438,6.125,6.125,0,0,0-2.343,4.759Z" transform="translate(-2.562 -13.31)"/><path class="a" d="M27.252,37.5H10V30.313A4.313,4.313,0,0,1,14.313,26h8.626a4.313,4.313,0,0,1,4.313,4.313ZM12.875,34.626h11.5V30.313a1.438,1.438,0,0,0-1.438-1.438H14.313a1.438,1.438,0,0,0-1.438,1.438Z" transform="translate(0.064 -15.936)"/><path class="a" d="M41.252,37.5H24V30.313A4.313,4.313,0,0,1,28.313,26h8.626a4.313,4.313,0,0,1,4.313,4.313ZM26.875,34.626h11.5V30.313a1.438,1.438,0,0,0-1.438-1.438H28.313a1.438,1.438,0,0,0-1.438,1.438Z" transform="translate(6.191 -15.936)"/><path class="a" d="M54.881,42.953l-2.343-1.826a6.038,6.038,0,0,0-3.853-1.438H12.2a6.038,6.038,0,0,0-3.853,1.438L6,42.953V21H54.881ZM12.2,36.814H48.685a8.971,8.971,0,0,1,3.321.633V23.875H8.875V37.447A8.971,8.971,0,0,1,12.2,36.814Z" transform="translate(-1.687 -18.125)"/><rect class="a" width="2" height="7" transform="translate(5)"/><rect class="a" width="3" height="7" transform="translate(50)"/><path class="a" d="M54.751,44.556A5.751,5.751,0,0,1,49,38.806V37.713a5.751,5.751,0,0,1,1.682-4.069l4.069-4.054,4.069,4.054A5.751,5.751,0,0,1,60.5,37.713v1.093A5.751,5.751,0,0,1,54.751,44.556Zm0-10.912-2.027,2.042a2.875,2.875,0,0,0-.848,2.027v1.093a2.875,2.875,0,0,0,5.751,0V37.713a2.875,2.875,0,0,0-.848-2.027Z" transform="translate(17.133 -14.365)"/><rect class="a" width="2" height="7" transform="translate(71 13)"/><path class="a" d="M64.5,34.377H46.87L48.667,20H62.7ZM50.119,31.5H61.247l-1.078-8.626H51.2Z" transform="translate(16.201 -18.562)"/></g></g></svg>