<svg xmlns="http://www.w3.org/2000/svg" width="66.949" height="64.921" viewBox="0 0 66.949 64.921"><defs><style>.a{fill:#4b370a;}</style></defs><g transform="translate(-0.5 -2)"><g transform="translate(0.5 2)"><path class="a" d="M67.449,35.813V33.784H56.629V22.321H54.6V33.784H41.075V30.4H39.047v4.01h0V49.338H25.521V39.255H23.493V50.136h0V64.892H16.054v-54.1H43.1V16.2H39.723v8.115H51.9V16.2H48.514v-5.41H52.43V8.763H16.054V2H6.586V8.763H.5v2.029H6.586l-.041,54.1H1.176V66.92h59.51V64.892H56.629V51.367h10.82V49.338H56.629V35.813ZM8.615,13.767,13.241,18.4,8.608,23.038Zm5.41,42.6-4.592-4.6,4.592-4.6Zm0-13.356-4.592-4.6,4.592-4.6Zm0-13.356-4.592-4.6,4.592-4.6ZM8.615,27.1l4.619,4.659L8.588,36.408Zm0,13.349L13.261,45.1,8.608,49.757Zm0,13.349,4.653,4.659L8.608,63.12Zm5.444,6.763v4.335H9.684Zm0-44.227-5.41-5.41v-.128h5.41Zm35.808,5.958H41.752V18.23h8.115ZM46.485,16.2H45.133v-5.41h1.353ZM8.615,4.029h5.41V8.763H8.615Zm32.46,31.784H54.6V49.338H41.075ZM25.521,64.892V51.367H39.047V64.892Zm29.079,0H41.075V51.367H54.6Z" transform="translate(-0.5 -2)"/><rect class="a" width="4.01" height="2.029" transform="translate(62.263 62.892)"/><path class="a" d="M41.47,87.115h8.115V79H41.47ZM43.5,81.029h4.058v4.058H43.5Z" transform="translate(-13.764 -26.928)"/><path class="a" d="M72.625,79H64.51v8.115h8.115ZM70.6,85.086H66.539V81.029H70.6Z" transform="translate(-21.223 -26.928)"/><path class="a" d="M64.47,64.115h8.115V56H64.47ZM66.5,58.029h4.058v4.058H66.5Z" transform="translate(-21.21 -19.482)"/></g></g></svg>