<svg xmlns="http://www.w3.org/2000/svg" width="66.643" height="96.589" viewBox="0 0 66.643 96.589"><defs><style>.a{fill:#155893;}</style></defs><path class="a" d="M45.772,0C27.5,0,12.883,15.9,12.883,35.537a36.963,36.963,0,0,0,2.6,14.579C23.764,69.6,40.234,89.837,44.906,95.678c.35.437.328.911.865.911a2.782,2.782,0,0,0,1.731-.911c4.67-5.839,20.273-26.074,28.561-45.561a37.621,37.621,0,0,0,3.462-14.579C79.524,15.9,64.043,0,45.772,0Zm0,53.762c-9.491,0-17.31-8.024-17.31-18.224s7.819-18.224,17.31-18.224,17.31,8.023,17.31,18.224S55.264,53.762,45.772,53.762Z" transform="translate(-12.883)"/></svg>