<svg xmlns="http://www.w3.org/2000/svg" width="100.848" height="93.287" viewBox="0 0 100.848 93.287">
  <g id="Group_448" data-name="Group 448" transform="translate(-1062 -1746.713)">
    <g id="Group_360" data-name="Group 360" transform="translate(1062 1746.713)">
      <g id="give-money" transform="translate(0 0)">
        <path id="Path_34" data-name="Path 34" d="M194.556,22.569A27.444,27.444,0,1,0,222,50.014,27.461,27.461,0,0,0,194.556,22.569Zm0,48.028a20.252,20.252,0,0,1-20.583-20.583c0-11.634,8.949-21.563,20.583-21.563a21.926,21.926,0,0,1,21.563,21.563C216.119,61.647,206.19,70.6,194.556,70.6Z" transform="translate(-121.152 -22.569)" fill="#155893"/>
        <g id="Group_355" data-name="Group 355" transform="translate(0 65.313)">
          <path id="Path_35" data-name="Path 35" d="M167.678,227.992a77.09,77.09,0,0,1-21.829,6.752c-7.2.961-20.836-1.483-20.836-4.22,0-1.037,11.663,2.476,18.852.844,5.513-1.251,4.983-5.33,1.984-5.908-2.981-.576-20.322-5.721-27.782-5.908a149.7,149.7,0,0,0-16.868.844c-1.438.2-1.894.517-1.984,1.688-.418,5.441-1.536,16.977-1.984,22.789-.009.123.382,1.162,1.984,0a9.87,9.87,0,0,1,6.945-1.688c3.569.689,34.437,5.062,38.7,4.22,6.093-1.2,22.491-9.958,25.8-12.661C175.78,230.555,171.971,225.977,167.678,227.992Z" transform="translate(-72.706 -219.538)" fill="#155893"/>
          <path id="Path_36" data-name="Path 36" d="M18.356,222.444l-13.5-.844c-1.062-.052-2.268,1.5-2.532,2.532L-.213,246.077a2.177,2.177,0,0,0,1.688,2.532H16.668c1.063.041,2.451-.628,2.532-1.688l1.688-21.945C20.969,223.916,19.418,222.5,18.356,222.444Zm-7.6,22.789c-2.1,0-4.22-1.275-4.22-3.376a4.553,4.553,0,0,1,4.22-4.22c2.1,0,3.376,2.119,3.376,4.22A3.114,3.114,0,0,1,10.76,245.233Z" transform="translate(0.26 -221.586)" fill="#155893"/>
        </g>
      </g>
      <g id="rupee-indian" transform="translate(71.454 14.731)">
        <g id="Group_359" data-name="Group 359" transform="translate(0)">
          <path id="Path_42" data-name="Path 42" d="M87.728,5.547c-.1-.1.159,0,0,0H84.452A4.848,4.848,0,0,0,83.36,3.363h4.368c.159,0-.1-.99,0-1.092s0,.159,0,0V.087c0-.159.1.1,0,0s.159,0,0,0H73.533c-.159,0,.1-.1,0,0s-1.092-.159-1.092,0V2.271c0,.148.984.984,1.092,1.092s-.148,0,0,0h2.184c2.4,0,3.72.9,4.368,2.184H73.533c-.159,0,.1-.1,0,0s-1.092-.159-1.092,0V7.731c0,.159.99-.1,1.092,0s-.159,0,0,0h7.643a4.2,4.2,0,0,1-2.184,2.184,6.2,6.2,0,0,1-3.276,1.092H73.533c-.148,0,.108-.108,0,0s-1.092-.148-1.092,0V13.19c0,.148.99.99,1.092,1.092,2.182,2.318,4.166,5.657,7.643,9.827.1.136.91,0,1.092,0h3.276c.239,0-.091.2,0,0a1.506,1.506,0,0,0,0-1.092C82.226,18.95,79.8,16.3,77.9,14.282A7.848,7.848,0,0,0,82.268,12.1a7.318,7.318,0,0,0,2.184-4.368h3.276c.159,0-.1.1,0,0s0,.159,0,0V5.547C87.728,5.388,87.83,5.649,87.728,5.547Z" transform="translate(-77.923 0.965)" fill="#155893"/>
        </g>
      </g>
    </g>
  </g>
</svg>
