<svg height="512" viewBox="0 0 512 512" width="512" xmlns="http://www.w3.org/2000/svg"><g id="flat"><path d="m24 176h144v32h-144z" fill="#fbb540"/><path d="m344 176h144v32h-144z" fill="#fbb540"/><path d="m168 208h176v160h-176z" fill="#c0f5f9"/><g fill="#dc4d41"><circle cx="224" cy="336" r="8"/><circle cx="264" cy="336" r="8"/><path d="m312 232h-24a8 8 0 0 0 -7.589 5.47l-6.177 18.53h-74.234a8 8 0 0 0 -7.589 10.53l16 48a8 8 0 0 0 7.589 5.47h56a8 8 0 0 0 7.891-6.685l7.9-47.381 5.975-17.934h18.234a8 8 0 0 0 0-16zm-46.777 72h-43.457l-10.666-32h59.456z"/></g><path d="m472 240h-128v-32h136z" fill="#c38325"/><path d="m344 240h128v128h-128z" fill="#c0f5f9"/><path d="m344 312h128v56h-128z" fill="#ebebeb"/><path d="m40 240h128v-32h-136z" fill="#c38325"/><path d="m40 240h128v128h-128z" fill="#c0f5f9" transform="matrix(-1 0 0 -1 208 608)"/><path d="m40 312h128v56h-128z" fill="#ebebeb" transform="matrix(-1 0 0 -1 208 680)"/><path d="m24 368h464v32h-464z" fill="#fbb540"/><path d="m24 392h464v8h-464z" fill="#ea9d2d"/><path d="m472 240h-112-16v16 56h16v-56h112z" fill="#b4e4e8"/><path d="m40 240v16h112v56h16v-56-16h-16z" fill="#b4e4e8"/><path d="m344 208v10.88a36.137 36.137 0 0 1 -8-2.88 35.752 35.752 0 0 1 -32 0 35.752 35.752 0 0 1 -32 0 35.752 35.752 0 0 1 -32 0 35.752 35.752 0 0 1 -32 0 35.752 35.752 0 0 1 -32 0 36.137 36.137 0 0 1 -8 2.88v-10.88z" fill="#b4e4e8"/><path d="m152 112h208v32h-208z" fill="#d9d9d9"/><path d="m368 208a35.778 35.778 0 0 1 -32 0h-32a35.778 35.778 0 0 1 -32 0h-32a35.778 35.778 0 0 1 -32 0h-32a35.778 35.778 0 0 1 -32 0l8-64h208z" fill="#ebebeb"/><path d="m176 136h32v72a35.778 35.778 0 0 1 -32 0z" fill="#dc4d41"/><path d="m240 136h32v72a35.778 35.778 0 0 1 -32 0z" fill="#dc4d41"/><path d="m304 136h32v72a35.778 35.778 0 0 1 -32 0z" fill="#dc4d41"/><path d="m304 112h32v32h-32z" fill="#c7463b"/><path d="m240 112h32v32h-32z" fill="#c7463b"/><path d="m176 112h32v32h-32z" fill="#c7463b"/><path d="m152 312h16v56h-16z" fill="#d9d9d9" transform="matrix(-1 0 0 -1 320 680)"/><path d="m344 312h16v56h-16z" fill="#d9d9d9" transform="matrix(-1 0 0 -1 704 680)"/></g></svg>